<svg xmlns="http://www.w3.org/2000/svg" viewBox="0 0 1254 1254"><path d="M626.8 56.3c-7.2 1.7-14.5 6.2-18.3 11.4-1.6 2.3-3.7 4.2-4.5 4.2-.8.1-2.7.7-4.2 1.5-2.3 1.2-3.3 1.2-7-.1-17.4-6.1-42.8 11.5-42.8 29.5v4.9l-4.9.6c-9.1 1.1-17 6.4-21.4 14.5-4.9 9-4.6 17.5.9 24.8l2.3 3.2-2.1 1.8c-3.3 3-6 10-6 16-.1 7.6 4 15.8 9.7 19.3 4.2 2.5 4.3 2.7 4.7 8.8q.45 6.3 2.4 9c1.2 1.6 2.4 4.1 2.8 5.8.4 1.6 1.3 3.7 2 4.5.6.8 1.9 3.1 2.8 5.2 1.7 3.6 1.7 3.6-.8 4.2-3.4.9-7.3 7.3-8.6 14.4-1.4 7.3.3 17.5 5.3 32.4 5.9 17.7 11.9 27 18.3 28.6 2.8.8 3.4 1.6 6.2 9.9 5.4 15.9 12.3 26.4 29.2 44.8 10 10.9 10.1 11.1 11.3 17.9 1 6 .9 7.1-.4 8-.8.6-3.5 2.5-6 4.3-5.8 4.1-12.2 12.2-18.7 23.8l-5 9.2-19.8 9.6c-10.8 5.3-29.6 13.6-41.7 18.5-30 12.2-36.2 15.3-43.1 21.6-10.4 9.3-20.3 25.9-29.3 48.3-5.9 14.8-9.1 26.1-20 70.3-5.5 22.3-11.7 47-13.9 55-6.3 23.1-10.5 42.7-9.8 45.5.4 1.6 2.7 3.8 6.4 6.2 3.1 2.1 5.8 3.7 5.9 3.8.4.1-8.2 35.4-11.2 46-1.9 6.6-5.9 19.2-9 28-6.7 19-9.2 28.9-10.1 39.9-2.4 29.3 13.4 63.1 33.9 72.7 8.9 4.1 15.8 4.7 24.4 2.2 3.7-1.2 10.4-3.1 14.8-4.3 16.7-4.5 29-14.7 37.2-30.7l2.4-4.8-.5 11c-.3 7-1.4 14.5-3.1 20.8-4 15.3-3.2 21 3.7 28.3l3 3.2-1.1 7c-.6 3.9-1.1 9-1.1 11.2 0 3-.7 5.1-2.5 7.2-1.3 1.6-3.3 5.7-4.4 9.1-4.5 14.7-12.6 53.2-17.6 84.2-2.1 12.9-7.5 52.2-7.5 54.7 0 .4-14.8.8-33 .8h-33l.7-6.3c.5-5.5 1-6.5 4.2-9.3 4.3-3.7 8.8-11.5 10.7-18.8.8-2.8 1.7-11.4 2-19.1.7-20.1 2.6-25.8 11.5-34.8 3.8-3.7 7.1-7.6 7.4-8.6 2.2-6.9-19.7-12.4-29.2-7.3-2.9 1.6-7.3 7.3-12.8 16.8-2.6 4.3-5.8 9.1-7.2 10.6l-2.5 2.7-3.8-4.7c-3.8-4.8-9.5-10.3-12.7-12-1.7-1-1.7-1.1.2-3.2 1.7-1.8 2-3.4 1.7-9.1-.2-5.3.3-8.3 2.3-13.4 10.1-26.8 6.1-51.9-11.2-70.6-12.6-13.5-31.3-22.4-51.9-24.4-3.8-.4-8.5-.8-10.4-1-1.9-.3-7.8 0-13 .5-37.2 3.8-64.7 23.8-72 52.4-3.6 14.1-2 28.4 5 46.1 2.4 6.2 3 8.7 2.5 11.7-.7 3.9.9 9.8 2.6 9.8 1.8 0 .8 1.5-2.2 3.5-8.4 5.5-20.3 23.5-25.4 38.5-4.8 14.1-7.5 38.6-5.2 47.1l.7 2.7-29.5.4c-26.5.3-31.9.7-30.3 2.3.2.2 14 .8 30.6 1.1l30.2.7 1.9 4.1c3 6.8 10.7 16 17.7 21.5 3.7 2.8 7.1 5.1 7.5 5.1.5 0 .9.4.9 1 0 .5-1.8 1-4 1-6 0-4.8 2 1.3 2.1 2.8.1 6.3.5 7.7 1 1.9.6 1 .8-3.2.6-7.3-.3-6.1.9 4.2 3.9 21.8 6.3 59.4 9.9 85.5 8.2 23.9-1.5 49.9-6.2 59.7-10.6l4.3-2-5.9.6c-4.6.4-5.7.2-5.1-.7.5-.9 2.8-1.2 7.3-.9 4.6.2 6.6-.1 6.9-1 .4-1.1-2-1.6-6.4-1.5-2.4.1-1.3-1.2 5.3-6.1 7.2-5.3 14.3-13.7 17.6-20.6l2.1-4.5h493.6l.6 2.4c1 3.8 4.9 10 10.5 16.6 2.7 3.2 5 6.3 5 6.8 0 3.2-2.8 9.2-5.4 11.8l-3.1 3-.7-2.3c-.3-1.3-.6-3.7-.7-5.3-.3-8.9-4.6-15.4-12.6-19.1-4.1-2-6.6-2.4-14.6-2.4-12.3 0-13.3.9-8.1 7.1 10.2 12.2 15.5 15.7 25.5 16.9 5.8.6 7.9 2.1 7.4 5-.2 1.4-3.8 4.4-13 10.7-5.1 3.6-6.1 6.5-2.6 8.3 1.5.8 2.9.9 4.7.1 2.6-1 11.4-2.7 17.7-3.4 1.7-.2.2-.5-3.2-.6-3.5 0-6.3-.4-6.2-.9 0-.8 13.7-10.8 18.3-13.4 1.8-1 5.3-1.7 8.5-1.8 5.2 0 5.4.1 12 6.5l6.6 6.5h-8.2c-8.5 0-11.3 1.4-4.5 2.3 4.8.6 21.9 4.2 30.2 6.4 4.9 1.3 11.2 1.8 25.5 1.9s20 .6 23.2 1.7c3.6 1.4 4.3 1.4 5.4.1 2.2-2.7-5.2-15.7-14-24.5-18.4-18.3-41.8-21.6-66.1-9.4-6.8 3.5-12 5.1-12 3.8 0-1.6 18.1-12.6 24.3-14.8 3.4-1.3 9.9-3.1 14.4-4l8.1-1.8 9.3 2.7c16.7 4.7 29.9 3.4 46.6-4.4 4.6-2.1 10.3-4.2 12.8-4.6 5.7-.8 5.8-2.5.3-6.1l-4.2-2.8 41.3-.7c22.7-.4 41.6-.9 41.9-1.2s.2-.9-.2-1.4c-.4-.4-22-1-47.9-1.3-31-.3-48.6-.9-51.2-1.7-5.6-1.6-17.3-1.5-23.1.3-4.6 1.4-21.4 2.1-21.4 1 0-.3 1.6-2.9 3.5-5.8 4.4-6.5 7.2-15.2 9.1-28.7.8-5.8 2.2-12.9 3.1-15.8 2.6-8.1 1.3-8.4-10.4-2.6-18.4 9.1-30.3 24.7-34.1 44.7l-1.6 8.7h-13.2l-1.2-7.3c-1.5-8.7-4.6-15.6-9.8-21.9-4.2-5.1-21-18.8-23-18.8s-2.4 2.8-1.3 8.2c.9 3.9.8 6.9-.2 12.7-1.5 8.5-1.8 20.2-.6 24.4.7 2.6.6 2.7-3.3 2.7h-4v-5.8c0-8.5-2.7-35.3-5.6-55.2-5.3-36.9-16.6-76.9-25.5-90.4-2.4-3.6-3.2-6-3.5-10.9-.2-3.4-.9-8.8-1.5-12.1-1-5.6-.9-6 1.4-8.5 1.4-1.4 3.2-4.1 4.1-5.8.9-1.8 1.8-3.3 2-3.3s6.4 1.5 13.7 3.4c22.5 5.8 47.4 8.7 75.4 9 16.8.1 17.1.1 22.5-2.7 6.9-3.6 10.8-7.3 16.9-16.2 13-19 17.8-32.8 20.2-59 1.9-21.4-.2-67.2-5.1-107.2-2.4-19.1-2.4-19.3-.7-19.3.6 0 4-1.8 7.4-4 7.3-4.6 8.1-6.6 6.4-15.4-.6-3.4-1.6-8.8-2.2-12.1-1.1-6.5-25-104.3-30.5-124.5-12.4-46.1-34.4-79.9-61.5-94.6-5.2-2.8-14.8-7.4-21.4-10.2s-27.1-11.3-45.5-19c-52.2-21.9-53.3-22.4-54.1-25.4-1-3.9-2.8-6.1-8.8-10.8-4.2-3.3-6-5.7-8.6-11.4-5.3-11.7-10.5-16.3-21.5-19l-4.5-1.1-.6-6c-1.5-14-1-33.7 1.2-43.1l2.1-9.1 4.7.5c10.4 1 18.6-7.8 27-29.1 8.6-21.5 8-43.4-1.2-50.3l-2.3-1.8 1.8-5.3c1-2.9 2.1-8.1 2.4-11.6.4-3.4 1.7-8.4 3-11.1 2.7-5.7 3.2-15 1-20.1-1.1-2.7-1-3.6 1.1-8.2 3.1-6.8 3.3-17.2.5-23.6-2.2-4.9-9.3-12.7-11.7-12.7-1.1 0-1.4-1.5-1.3-7.3.1-8.6-1.8-13.6-7-19.1S753.9 86 746.6 86c-5.1 0-6.3-.4-9.3-3.1-3.1-2.6-4.2-3-8.5-2.8-4.9.3-5.1.2-6.5-3.2-4.6-11-21.9-19.7-32.3-16.1-2.5.9-3.8.8-6-.3-6.1-3.1-16.6-1.2-22.1 4.1l-2.5 2.4-4.2-3.9c-6.7-6.4-18-9.1-28.4-6.8m69.6 96.2c6.4.1 7.6.4 10.1 2.7 3.3 3.1 9.8 5 14.6 4.2 5.5-.9 6.4 1 6.4 13.5 0 9.8.2 11 2.7 15.3 1.5 2.5 4.3 5.6 6.2 6.7l3.4 2.1.7 17.8c.7 18.6 2 31.1 3.4 32.5 2.3 2.3 6.9-4.2 8.6-12.3 1.2-5.6 5.7-14 8.6-16.1 6.8-4.8 13.2-3 17 4.8 3.5 7 3.2 20.5-.6 32.3-5 15.7-13 29.6-18.6 32.6-6.1 3.1-10.2 1-11.6-6-1.2-5.4-2.7-4.5-3.6 2.1-1.5 10.5-5.7 25.7-9.2 33.2-1.9 4-3.5 7.7-3.5 8.2 0 1.8 2.5.8 4.5-1.8l2.2-2.6.6 13.9c1.1 22.3 5 43.5 9.4 50.2 1.4 2.2 1.2 2.9-3.1 11.3-8.1 15.9-21.9 34.1-39.4 52.1-11.7 12-20.4 17.6-30.7 19.8-7.6 1.7-10.6 3.3-4.7 2.7 2.3-.3 4.2-.4 4.2-.2s-4.4 3.4-9.7 7.1c-5.4 3.8-13.1 9.7-17.1 13.2s-7.4 6.2-7.6 6c-1.8-2.8-7.5-10.1-13.5-17.3-11.5-13.7-10.9-12.6-7-12 2.9.5 2.6.3-1.5-1.4-2.8-1.1-6-3.3-7.2-4.8-3-3.8-4.9-13.6-4.9-26.3 0-9.5.2-10.9 2.5-14.5l2.5-4 .5 4.5c.3 3.1 1 4.5 2 4.5 2.4 0 2.4-10.7 0-30.5-1.2-9.6-2.4-18.5-2.7-19.8-.5-2.1 0-2 4.8 1.7 5.8 4.4 14.5 7.5 23.9 8.6 9.5 1 31.3-3.1 40.1-7.5 15.2-7.8 48.4-39.9 44.9-43.4-.7-.7-3.5 1.4-9.3 7-11.1 10.8-17.6 16.2-37.8 31.2-2.8 2.1-11.6 4.1-22.8 5.2-18.4 1.9-31.1-1.3-40.6-10.1-6.2-5.7-26.1-27.9-31.2-34.9-13.2-17.9-19.9-40.5-23.3-79.5-.6-6.6-1.5-16.1-2-21-.6-5-1.5-15-2-22.2-1-12.1-.9-13.5.7-16 1.5-2.2 1.8-4.9 1.8-14.8v-12.1l5.1-5.1c3.9-3.9 5.4-4.9 6.7-4.1 2.3 1.2 5.1-.4 7.7-4.7 1.4-2.3 3.3-3.8 5.7-4.4 3.3-.9 3.9-.8 6.9 1.9 1.9 1.6 5 3.2 7.1 3.6 3.5.7 10.6-.3 14.4-2 1.2-.5 1.8-.1 2.2 1.5 2.1 8-6.4 16-11.7 11-2.5-2.3-3.6-1.9-3.6 1.4 0 4.8 7.3 8.4 14.5 7.1 6-1.2 13.5-9.2 13.5-14.4 0-1.8 1.8-3.2 4.1-3.2.5 0 .9 1.4.9 3 0 3.5 2.9 9.7 5.7 12.2 7.3 6.6 19.3 6.1 26.5-1.2 3.2-3.1 3.8-4.5 3.8-7.8 0-2.3-.5-4.4-1.1-4.8-.6-.3 1.6-1.9 5-3.6 3.3-1.6 7-4.2 8.1-5.8l2.1-3 4.1 3.3c3.7 2.9 4.6 3.2 11.2 3.2m-38.5 4.9 5 1.1-1.8 2.4c-3.7 4.8-12.1 1.2-12.1-5.2 0-2.9 0-3 2-1.2 1.1 1 4.2 2.3 6.9 2.9m-108.1 72.8c.5.7 1.3 3.5 1.7 6.3l.8 5-2.7-2.5c-3.1-2.8-5.9-1.9-6.4 2.1-.3 2.3-.3 2.3 1.1.5 1.9-2.6 4.2-1.5 6.6 3.1 2.6 5.2 2.9 9.3.8 12.3-1.9 2.7-2.2 6.5-.7 7.5.6.3 1-.3 1-1.4s.4-2.2.9-2.5c1-.6 1.6 1.7 2.6 9.9.5 4.6.4 4.9-1 3.1-1.5-1.9-1.5-1.9-1.5.4 0 1.3.9 3.3 2 4.5 2.4 2.5 5.4 16.5 3.5 16.5-3.5 0-7.2-5.8-12.8-20q-11.4-28.95-5.1-41.1c2.3-4.5 7-6.3 9.2-3.7m207.9 131.9c2.2 1.4 4.5 4.7 7.8 11.2 3.7 7.2 6.2 10.6 11.6 15.7 5.2 5 6.9 7.2 6.9 9.3 0 8.8-10.3 41.3-22 69.5-7.3 17.6-6.7 17.1-19 15.3-10.5-1.6-17.5-3.4-29-7.7-7.7-2.9-10.4-3.5-14.2-3.1l-4.7.6.6-3.7c.5-3 2.7-5.9 11.7-15.2 13.3-13.9 24.1-27.1 32.6-40 11-16.8 15-26.5 15-36.4 0-6.8-1.7-10.3-5.2-10.8-1.8-.2-2.4-1.2-2.9-4-.3-2.1-.4-4-.2-4.2.7-.7 7.7 1.5 11 3.5m-151.1 28.6q.6 3.6-.6 5.7c-4 6.2-4.4 8.4-5.4 26.3-.8 15.6-.7 19.6.7 27.6.9 5.1 1.7 11 1.7 13s.5 3.7 1 3.7c.6 0 1-.7 1-1.5s.3-1.5.8-1.4c.8.1 12.1 13.5 23.1 27.5 7.2 9.1 9 13.5 3.3 8.1-1.5-1.4-6.3-4.3-10.7-6.4-6.2-2.9-9.5-3.8-15.5-4.3-8.6-.6-8.3 0-4.9-10.7 1.1-3.5 1.8-6.6 1.5-7.1-1.1-1.9-11.6.2-23.6 4.8-17.5 6.6-28 8.8-28 6 0-.6 1.6-4.1 3.5-7.9s6.2-13.4 9.5-21.3c7.7-18 21.8-45.4 27.7-53.6 4-5.6 11.2-12.2 13.4-12.2.4 0 1.1 1.6 1.5 3.7m205.1 22.9c12 5.2 31.5 13.5 43.3 18.4 52.7 21.5 58.9 24.9 72.4 39.1 13.9 14.6 23.7 32 32.9 58.5 4 11.6 32.7 123.5 34.3 134 .3 2.4.1 5-.5 6.2-.9 1.8-.9 2.1.3 1.6 1.8-.7 5.3 14.2 3.9 16.6-2 3.1-25.8 13.9-43.7 19.8-29.5 9.8-51.7 14.2-75.2 14.9l-16.2.6-1.5-2.4c-1.4-2.1-2.8-8.4-3.2-14.4-.1-1.1-.4-2.7-.8-3.5-.9-2.3-5.4-28.1-7.2-41-8-60.6-8.1-65.7-1.9-103.8 1.4-8.4 2.8-16 3.1-16.8.3-.7 0-1.4-.5-1.4-1.5 0-5.8 13.9-8.7 28.3-4.7 23.7-5.4 46.2-1.9 66.2 1.8 10.7 1.8 10.8-2 4.8-6.1-9.6-12.1-26.9-16.2-46.8-1.8-9.1-2.2-10.2-2.3-6.4-.1 5.6 3 21.3 6.5 32.9 3.4 10.9 7.4 19.7 12.4 27.1 3.7 5.4 4.1 6.6 6 19.6 1.1 7.6 3.1 20.1 4.5 27.7l2.5 14-4 11.9c-2.2 6.6-6.8 18.3-10.1 26-3.3 7.6-5.8 14.2-5.5 14.5.8.8 14-27 17.2-36.3 3.4-9.9 4-10.6 4.8-5.8 1.2 6.7 2.6 9.2 6.2 10.5 2.5.9 3.4 1.8 3.4 3.5 0 3.5-5.6 29.5-9.3 42.8l-3.2 12-10.6.3-10.6.3-6.6-12.8c-13.3-26.1-23.9-54.9-32.6-89.3-8.9-35.1-13.8-62.8-16.2-92-1.2-15.6-1.9-17.4-7-18.5-3.4-.8-3.4 0-1.4-19 3.7-37 8-63.9 16.4-104 4.9-23.6 7.4-39.6 6.9-44.1-.2-1.9-.3-3.4-.2-3.4s10 4.3 22.1 9.6M561 446.7c-4.8 10.9-10.4 23.1-12.4 27-4.1 8.3-4.4 10.6-1.5 12.6 2 1.5 2 1.6-4 19.5-5.4 16.3-12.9 44.3-16.3 61.2-1.2 6.1-1.5 6.5-4.2 6.7-1.6.1-3.6.9-4.4 1.7-1.5 1.5-6.9 26.8-14.8 69.5-2.4 13.5-4.6 24.5-4.7 24.6-.1 0-1.9 1.3-3.9 2.8-2.1 1.6-3.8 2.4-3.8 1.8 0-.5-.4-4.3-1-8.3-2.2-16.6-4.1-41.9-5-67.8-1-25.5-.9-32.5.6-51.5.4-4.8.2-6.7-.5-6-1.7 1.7-4.1 18.3-4.8 33.3-.3 7.8-.8 14.1-1 13.8-.2-.2-1.5-4.8-2.8-10.2-2.7-11-4.8-24-6.5-41.4-.7-6.3-1.4-11.7-1.7-12s-.3 6.2 0 14.5c.7 17.2 4.3 39.7 8.4 53 2.2 7.1 2.8 11.4 3.1 20.5l.3 11.5-3.6-5.3c-2-2.9-5.7-9.3-8.2-14.3s-4.7-8.8-4.9-8.6c-1.3 1.3 8.9 22.5 14.2 29.8 2.3 3.1 3.4 5.8 3.4 8 0 1.9 1.1 13.5 2.6 25.8l2.5 22.4-2.8 5.3c-3.3 6.4-3.2 6.4-17.6 3-11.5-2.8-22.3-6.4-38.3-13.1-6.7-2.7-10-3.8-8.7-2.6 5.5 4.7 40.6 17.1 53.1 18.8 2.3.3 4.2.9 4.2 1.4 0 .8-1.1 1.2-14 4.4-3.6.9-8.6 2.8-11.2 4.2l-4.6 2.5-6.9-2.2c-17.6-5.9-37.3-15.7-37.3-18.7 0-1.7 2.7-12.9 3.7-15.3.3-.8.7-2.6.9-4 .1-1.4 3.9-16.7 8.4-34s10.9-42.4 14.1-55.8c10.8-45.1 19.9-69.7 33.3-89.9 9.5-14.5 14.8-17.9 49.4-31.9 19.6-8 39.4-16.9 50.7-22.7 3.9-2 7.1-3.6 7.1-3.7.1 0-3.8 8.9-8.6 19.7m130.9 24c-.5 2.1-.9 7.3-.9 11.5v7.7l-3.7.6c-14.8 2.5-33.8 8.3-40 12.1-9.6 6-9.7 10.3 0 4.9 7.5-4.2 17-7.6 17.7-6.4.9 1.3 28.9-5.4 30.1-7.3.5-.7.9-4.2.9-7.7v-6.4l4.3.7c2.3.4 11.4 2.3 20.2 4.2 8.7 1.9 18.7 3.8 22.2 4.1s6.3.9 6.3 1.2-.6 4.2-1.4 8.6c-2.9 16.3-5.6 36.5-7.5 55.9-1.1 10.9-2.1 20-2.3 20.1-1.3 1.3-108.9 4.8-113.1 3.7-1.3-.3-1.6-1.2-1.2-3.6.2-1.7.9-8.1 1.5-14.1 2-19.4 5.8-39.5 8.7-45.5 3.5-7.2 19.6-23.3 32-32 8.9-6.3 25-16 26.4-16 .4 0 .3 1.7-.2 3.7M595 483.1c-1.4 4.7-1.2 9.6.3 10.6.6.4 5.3 2 10.4 3.4 8.7 2.5 9.2 2.5 8.2.7-.6-1.1-.8-2.2-.5-2.5.8-.9 12.6 5.2 16.5 8.5l3.4 2.8-2.6 4c-1.4 2.1-3.2 6.4-4.1 9.4-1.7 6.1-6.1 34.6-7.1 45.5-.3 3.8-.9 8.3-1.2 9.9l-.5 2.9-23.2-.7c-23-.7-44.4-2.1-45.3-3-1.6-1.5 11.2-57 17.8-77.3l4-12.2 8.2-2.5c6.5-2 14.8-3.5 16.4-3 .2 0-.2 1.6-.7 3.5m-58.2 108.1c2.1 2.1 1.5 8.5-1 10.2-1.2.9-2.9 1.6-3.7 1.6-2.5 0-5.1-3.2-5.1-6.2 0-5.1 6.5-8.9 9.8-5.6m216.9 2c3 2.8 2.9 6.3-.2 9.3-2.8 2.9-5.1 3.1-8.3.9-2.9-2-2.9-7 0-10.1 2.7-2.9 5.5-2.9 8.5-.1m-106.9 65.4c25 5 41.7 14 49 26.4 2.4 4.1 2.7 5.4 2.5 13.5-.4 16.3-3.2 34.1-7.9 49.5-2.4 8-2.9 8.7-7.7 12.3-3.5 2.5-8.7 4.8-16.2 7.2-13.9 4.3-26.3 10.3-29.7 14.3-3.7 4.5-4.4 10-2 15.6 1.1 2.5 3 5.1 4.1 5.8 1.2.7 2.1 1.6 2.1 1.9 0 1.7-13.7 3.4-27 3.4-13.2 0-15.3-.3-23.5-2.9-4.9-1.5-12.1-4.6-15.9-6.7-3.8-2.2-9.3-4.8-12.2-5.8-6.5-2.2-7.6-3.1-12.4-10.1-13.7-20.2-21.7-50.6-22.1-83.5-.1-8.5.2-9.9 2.8-14.6 12.5-23.1 68.9-35.9 116.1-26.3M512 677.7c2.1 2.1 4.6 4.3 5.6 4.9 2.8 1.6 3.8 3.9 3 6.7-.8 3.3-2.7 4.3-10.2 5.6-3.2.6-6.9 1.3-8 1.6-1.5.5-3.2-.2-5.7-2.5-1.9-1.7-3.8-2.6-4.1-2.1-.8 1.2.9 5.7 2.4 6.6.7.5.8 1.1.1 1.9-.8.9-3 1-9 .3l-8-1 3.8-2.7c2.4-1.8 4.8-5 6.9-9.1 3.8-7.8 4.8-9.1 9.2-11.8 5.4-3.3 9.5-2.8 14 1.6m10.8 28.1.3 7.2-4.8-3c-2.6-1.6-5.6-3-6.7-3-2.4 0-10.6-3.2-10.6-4.1 0-1.5 16.6-5.1 20.5-4.4.6.1 1.1 3.4 1.3 7.3m-87.4 3.8c4.5 1.4 5.5 2.1 4.9 3.3-.4.9-.8 5.8-1 11-.2 8.4-.6 9.8-3.2 14-3.6 5.6-5.1 11.1-4.4 15.5.6 3.7 1.1 3.3-10.1 7.2-9.4 3.2-14.6 6.5-19.8 12.3-4.4 4.9-8.1 11.1-7.2 12 .2.3 3-2.1 6.1-5.3 7.1-7.3 11.3-10 22.2-14.1 4.7-1.8 9.3-3.5 10.2-3.9 2.8-1.2 4.1 3.8 3.3 12.5-.8 9.8-.3 11.7 4.5 17.3 3 3.4 4.1 5.8 4.6 9.3 1.4 10.3 4.1 13.6 16 19.4 10.1 5.1 15.2 5.7 22.9 3.1l5.8-2-.7 5.7c-1.1 8.8-4.8 20.4-8.6 26.6-6.9 11.6-20.2 20.8-34.6 24.1-3.8.9-8.8 2.2-11.2 3-6.2 1.9-11.1 1.8-17.6-.7-14.1-5.2-27.4-24.9-31.9-47.1-3.6-17.3-1.6-30 9.8-64.3 4.6-13.8 10.7-34.5 13.6-46.1l5.2-21.1 7.7 3.2c4.3 1.8 10.3 4.1 13.5 5.1m45.5-4.6c29.2 3.4 41.3 10.6 39.8 23.7-.6 5.5-3 8.4-6.6 7.8-17.3-2.8-23.5-3.5-34.6-3.9-13.5-.6-17.6.1-13 2.2 3.4 1.6 11.9 2.8 31.9 4.7 18.3 1.7 22.5 2.9 25.1 6.9 2.5 3.7 2.2 10.3-.6 13.2-3.9 4.2-8.6 4.8-34.6 4.6-23.9-.2-29.1.5-20.5 2.7 5.7 1.5 32.8 3.1 40.8 2.4 6.4-.5 7.4-.3 10.4 1.8 2.9 2.2 3.1 2.8 2.7 6.4-.4 2.9-1.5 4.8-4 7-6.2 5.4-11.4 6.6-29.9 7.2-16.8.6-20.7 1.3-17.8 3.3 1 .7 8 1 19.5.7 14.1-.2 18.8-.7 21.9-2 4.7-2.1 4.3-2.1 5 .5.8 3.1-2.7 9.9-6.5 12.7-3.8 2.9-11.4 5.5-22.1 7.6-7.3 1.5-12.5 3.5-8.9 3.5.7 0 .9.5.5 1.1-1.3 2.2-9.9.2-17.9-4.3-8.4-4.7-9.8-6.6-11-14.3-.8-6-1.7-7.8-6.3-12.9l-3.4-3.9.7-9.9c.6-9.5.6-10.1-2-15-3.8-7.2-3.5-11.3 1.2-19 3.6-5.9 3.8-6.5 3.6-13.7-.3-9.5.9-13.4 5.4-16.8 2.6-2 11-5.8 14-6.3.1 0 7.9.9 17.2 2m502.6 2.2c.8 3.9 4.4 39.5 5.7 57.3 1.5 21.8 1.5 60.6-.1 71-2.8 18.5-7.3 30.1-17.6 45.6-7 10.6-11.9 14.6-20.2 16.9-3.9 1.1-8.4 1.2-25 .2-51.2-3-78.5-10.1-133.8-34.9-31.2-14-48.1-21-57.3-23.5-4.5-1.3-8.2-2.5-8.2-2.8.1-.3 2.6-2.2 5.6-4.3 3.1-2.2 5.3-4.1 5.1-4.4-.3-.2-3.2.9-6.4 2.6-3.3 1.6-12.7 5.3-20.9 8.1-19.2 6.7-40 14.3-49.1 18.1-8.9 3.6-11.7 3.6-22.3-.2-4.7-1.6-14.1-4.1-21-5.5-20.1-4-33.2-7.4-37-9.6-8.9-5.2-25.9-19.1-31.5-25.9-3.3-3.9-8.1-9.6-10.7-12.5-6-6.8-6.8-9.7-3.7-13s8.8-3.3 12.6.1c2 1.7 2.3 2.4 1.2 2.5-.8 0-2.6 1.1-3.9 2.5l-2.3 2.4-2.9-2.4c-4.1-3.5-5.7-3.1-1.9.4 1.7 1.6 3.1 3.8 3.1 4.9 0 3.5 5.5 9.6 15.7 17.4 10.7 8.2 31.2 19.9 37.8 21.6 10.6 2.8 53.4 5.4 52 3.3-1.3-2.3-5.6-3.1-22.8-4.6-23.9-2.1-25.5-2.3-31.2-4.8-14.4-6.2-33.3-18-42.7-26.6-3.1-2.7-3.7-7.1-1.4-9 .8-.7 3-1.5 4.9-1.8 3.8-.6 10.8 2.1 20.1 7.9 2.8 1.7 10.7 4.7 17.6 6.8l12.5 3.7 17-.8c12-.7 18-1.4 20.4-2.5 1.9-.9 7.1-1.9 11.7-2.2 6.2-.3 8.1-.8 7.7-1.8-.3-.9 1.4-1.8 5.4-3 3.2-.9 9.1-2.9 13.1-4.5 3.9-1.6 10.5-3.4 14.5-4 8.3-1.3 9.9-1.9 7.1-3-5-2-12.7-.9-26.3 3.7-9.9 3.4-15.7 4.8-21.3 5.2l-7.7.5-3.6-3.6c-7.7-7.7-3.2-15.2 13-21.9 5-2 11.9-4.4 15.4-5.3 7.7-2 12.2-4.1 18.5-9 8.7-6.6 12.3-8 20.6-7.9 13.1.2 21.3 5.5 31.2 20.3 4.1 6.1 9.2 11 10.3 9.9.3-.2-.8-2.3-2.5-4.6-1.6-2.3-3-4.4-3-4.6s4.6 1.4 10.3 3.6c21.7 8.4 42.4 12.5 68.7 13.4 16 .6 27.6-.2 57-3.7 19.7-2.3 39.7.4 54.9 7.6 9.2 4.4 10.7 4.4 5.6-.1-9.1-8-25.1-13.2-42.9-13.9-5.9-.2-11-.5-11.1-.7-.2-.2-2.4-10.7-4.9-23.3-2.6-12.7-4.9-24-5.1-25.3-.5-2.1-.2-2.2 5.4-2.2 22.3 0 66.5-10.8 91.1-22.4 4.1-1.9 7.8-3.5 8.2-3.5.4-.1 1 .9 1.3 2.1m-107.1 50.6c2.7 13.3 4.6 24.5 4.3 24.8-.5.6-21.9 3.5-22.4 3.1-.1-.1 1.2-5.4 2.8-11.7 4-15.8 8.9-38.1 8.9-40.4 0-5.5 2.1 2.2 6.4 24.2m-338.6 13.8c1.3 2.5 2.1 4.8 1.9 5-.7.7-9.6-3.4-14.3-6.7l-4.6-3.1 3.3-2.2 3.3-2.3 4.1 2.3c2.8 1.6 4.8 3.7 6.3 7M312 887.4c23.4 6.3 38.9 19.1 45.7 37.6 2.5 6.7 2.8 8.8 2.7 19 0 7.1-.7 14-1.7 18-.9 3.6-1.7 8.6-1.7 11.2 0 4.3-.2 4.7-2.7 5-2 .2-3.3 1.3-4.5 3.8l-1.7 3.5-.1-3.6c0-4.8-2.8-8.1-9.2-11.1-7.4-3.5-24.3-7.4-34-7.8-.4 0-.5-1.9-.2-4.3 1.2-8.7-4.7-14.7-14.6-14.7-5.7 0-9.8 1.9-12.4 5.6-2 2.9-2.8 7.8-1.7 10.7 1 2.5.9 2.6-3.7 3.2-10.8 1.4-23.9 4.6-29.7 7.4-8.3 3.8-10.5 6.3-10.6 12l-.1 4.6-1.5-3.8c-1.4-3.2-2-3.7-4.7-3.7-3 0-3.2-.2-2.8-3.3.2-1.8-.6-7-1.8-11.7-2.8-10.7-3.7-25.9-2-33.1 2.8-11.7 9.8-22.9 18.8-30.2 8.9-7.2 24.3-13.7 37.5-15.8 7.6-1.2 30.3-.3 36.7 1.5m620.1 205.5c-.4 6.5-1.5 8.7-7.4 14.4-4.5 4.5-20.7 16.5-20.7 15.4 0-2 3.1-8.3 6.6-13.5 4-5.8 7.4-14.2 7.4-18.3 0-2.2.8-2.4 8.3-2.4h6.2zm37.9-3.9c0 .5-.3 1-.8 1-.4 0-3.1 2.1-6.1 4.7-4.7 4.1-6.5 4.9-15.9 7.4-5.9 1.6-11.8 3.1-13.2 3.5-4.7 1.3 3.8-6.3 10.6-9.5 3.4-1.6 8-4.1 10.1-5.5 3-2.1 5-2.6 9.5-2.6 3.2 0 5.8.4 5.8 1"/><path d="M687.3 156.4c-3.8 2.5-4.2 5.6-1.1 8.6 4.4 4.1 15 1.2 16.4-4.5.8-3.3-.1-4.2-2.3-2.2-2.6 2.3-7.3 3.8-9.4 3.2-2.1-.7-2.5-3.5-.7-5.3 2.1-2.1.4-1.9-2.9.2m-15.1 38.1c-6.8 1.9-10.7 4-12.6 6.7-2.7 3.8-.6 4.8 7.2 3 10.1-2.2 29.2-2.2 37 .2 3.4 1.1 6.5 1.6 6.9 1.2 1.2-1.1-5-6.6-10.6-9.3-6.7-3.3-19.5-4.1-27.9-1.8m-88.7 4.9c-2.7.7-6.1 1.8-7.5 2.5-3.9 2.1-10 8.3-10 10.3 0 2.2.1 2.2 4.2-.1 6.8-4 15.3-5.4 28.4-4.6 13.9.7 15.7 0 10.7-4.5-2.2-1.9-5-3.1-9.5-3.9-7.8-1.3-9.8-1.3-16.3.3m89 22.4c-4.8 2.3-9 6.6-8 8.2.5.7 1.7.3 3.8-1.3 1.8-1.3 4.1-2.7 5.2-3 1.8-.6 2-.2 2 3.9 0 3.8.5 5 2.9 7.1 2.3 1.9 3.6 2.3 6 1.9 4.6-1 6.1-3 6.1-8.6 0-2.8.4-5 .9-5s2.9 1.2 5.4 2.6c3 1.8 4.7 2.3 5.4 1.6 1.5-1.5.3-2.8-4.9-5.9-6.2-3.6-18.7-4.4-24.8-1.5m-84.9 3.6c-5.4 2-9 4.9-9.4 7.5-.4 2.7.4 2.7 4.7-.3 2-1.4 4.8-2.8 6.3-3.1 2.6-.7 2.7-.6 1.6 2.2-1.4 3.7.6 8.2 4.3 10 5.6 2.7 11.9-2.7 10.6-9.2-.2-1.4-.2-2.4.2-2.3 6.5 3.4 8.6 3.4 6.5 0-3.3-5.2-16.8-7.8-24.8-4.8m177 1.7c-3.9 3.3-8.8 12.7-10.8 20.1-1 4.1-1 5.1.8 8.3l1.9 3.6-2.3 3.9c-3.8 6.7-2.3 11.7 2.7 9 2.5-1.3 5.6-5.8 4.7-6.7-.3-.3-1.4.1-2.4 1-2.7 2.5-3.3 2.1-1.6-1.1 1.8-3.4 1.8-9.2 0-11.7-1-1.4-1.1-2.7-.4-4.5l.9-2.5 2.5 2.8c1.3 1.5 2.4 4 2.4 5.5 0 1.9.3 2.3 1.1 1.5 1.8-1.8.1-8.2-2.8-10.9l-2.6-2.4 2.4-5.2c2.6-5.7 6.5-10.8 8.2-10.8.6 0 1.9.7 2.9 1.7 1.7 1.5 1.8 1.5 1.8-.3 0-5.1-4.5-5.7-9.4-1.3m-138.8-.6c-.3.3-.3 2.5-.1 4.9.6 5.1-2.6 22.8-6.7 36.5-3.6 11.9-3.6 13-1 16.4 3.5 4.4 18.6 8.7 20.4 5.8.3-.5-2.4-2.1-6.2-3.6-12.6-5-12.6-5-8.7-18.3 3.7-12.7 6.8-32.4 5.8-37.4-.8-3.9-2.2-5.6-3.5-4.3m30.8 53.2c-.5 1.4-1.7 1.8-6 1.8-3.9 0-6 .5-7.5 1.9-2.8 2.5-1.3 4 2.4 2.6 1.6-.6 4.6-.8 6.6-.5 3.1.5 3.9.3 5.3-1.7 1.8-2.5 2.1-5.8.7-5.8-.5 0-1.2.8-1.5 1.7m24.3 23c-.8.9-3.8 2.7-6.8 4-18 8-50.6 9.6-63.9 3.2-4.6-2.3-6.7-1.7-6 1.7.4 2.5 14.1 6 26.5 6.9 15.9 1.1 31.9-2 47.6-9.2 7.7-3.6 8.8-4.8 6.5-7.1-1.6-1.6-2.3-1.5-3.9.5m-50.3 27.5c1.9 3 16.1 3.2 21.3.4 2.1-1.2.9-1.3-9.7-1.3-6.6.1-11.9.5-11.6.9M901 467.7c-4.5 2.2-20.2 17.7-22.5 22.3-1.3 2.5 1 .6 7.9-6.7 5.3-5.5 11.6-11.4 14.1-13 2.5-1.5 4.5-3.1 4.5-3.6 0-.9.1-.9-4 1m76.5 209.9c-11.8 5.2-40.8 14.6-58.4 19-18.1 4.4-18.6 5.8-.8 1.9 22.7-5 66-20 68.3-23.6.8-1.4-.6-1-9.1 2.7M638.9 515.9c-4.4 4.5-3.6 10 1.8 11.9 7.9 2.7 14.1-7.2 7.9-12.5-3.6-3.1-6.2-2.9-9.7.6m-5.4 36.1c-4.1 4.6-1 12 5 12 1.9 0 3.9-.8 5-2 2.5-2.8 2.5-8.8 0-10.6-2.8-2.1-7.9-1.7-10 .6M602 661c-19.5 1.3-39.9 6.6-51.6 13.5-7.2 4.2-16 13.6-16.8 17.8-2.9 15.4 17 29.5 51 36.4 12.4 2.5 44.2 2.5 56.8 0 27.5-5.5 47.4-16.8 50.6-28.6 1.9-7.3.6-10.8-6.4-17.7-15.6-15.3-48.2-23.7-83.6-21.4m40.1 5c24 4.2 40.4 12.9 45.5 24.1 1.6 3.7 1.7 4.4.3 8.2-.8 2.3-2 4.1-2.7 4-.6-.2-.9.3-.6 1.1 1.2 3.2-17.2 14.4-21.8 13.2-1.2-.3-1.7-.3-.9 0 1.9.9-3.1 2.9-13.2 5.3-41.6 9.8-95.1.3-108.2-19.2-3.3-4.9-3.6-7.6-1.6-12.2 2.9-6.5 8.5-11.4 18.7-16.2 21.5-10.1 54.8-13.4 84.5-8.3M775 1109.6c-28.2 3.5-46.2 11.3-48.6 21-1.8 7.1 3.8 17.3 13.4 24.6 3.1 2.4 6.1 4.9 6.5 5.5.4.7 1.9 1.3 3.2 1.3 1.4 0 2.5.5 2.5 1 0 1.4-5.3 0-6.3-1.7-.5-.7-1.3-1.1-1.8-.7-3.2 1.9 9.8 6.2 28.4 9.4 21.1 3.6 41.6 2.4 65.5-3.9 7.6-2 11.3-3.9 5.5-2.8-1.9.4-3.3.2-3.3-.3 0-.6 2.5-1 5.5-1s5.5-.5 5.5-1c0-.6-1.1-1-2.5-1-2.3 0-2.1-.4 2.7-4.3 11.5-9.3 16.4-21.2 11.9-28.5-4.1-6.5-16.8-12.2-35.1-15.8-8.3-1.6-44.5-2.8-53-1.8m49 5.1c22.4 3.6 37 11.1 37 18.9 0 7.6-10.5 19.1-23 25.3-13.1 6.5-24.4 8.4-45 7.8-18.2-.5-27.4-2.4-38.9-7.8-13.3-6.2-24.1-17.3-24.1-24.9 0-10.4 21.7-19.1 53.5-21.4 8.9-.6 30.8.5 40.5 2.1"/><path d="M792.2 1116.4c-2.3.8-5.3 2.1-6.6 3-1.6 1-3.6 1.3-5.9.9-2.9-.4-3.7-.2-4.6 1.6-.9 1.6-2.1 2.1-5 2.1-3 0-4 .5-5.1 2.4-1 1.9-2.2 2.6-5.4 2.8-3.1.2-4.3.8-5.1 2.5-.7 1.6-1.8 2.3-3.8 2.3-1.6 0-3.8 1-5.3 2.5-2.9 2.9-4.8 2.4-8.3-2.1-2-2.6-2.1-2.6-2.1-.5 0 4.9 8.1 9.9 22.3 13.6 15 3.9 24.1 4.8 44 4.2 14.7-.4 20.3-1 28.9-3 16.6-4 25.9-9.4 25.8-15.1-.1-1.9-.2-1.9-2.1.7-3.3 4.3-5.8 5.3-7.6 2.8-.8-1.2-2-2.1-2.7-2.1s-2.5-1.1-4-2.5-3.6-2.5-4.6-2.5c-1.1 0-2.7-1.1-3.6-2.5-1.4-2.2-2.1-2.4-5.5-1.9-3.5.6-4.3.3-7.9-3-3.4-3.1-4.7-3.6-8.7-3.6-2.6 0-5.3-.6-6.2-1.4-2.5-2.2-6.2-2.6-10.9-1.2m111 37.7c-4 1.2-3.8 2.8.9 5.1 4 2.1 13.5 2.4 17.4.6 8.1-3.7-7.9-8.7-18.3-5.7m-27.7 8.4c-.5.2-2.2.6-3.7.9-1.6.4-2.8 1.1-2.8 1.6 0 3.7 20.4 10.4 29.8 9.8 7.4-.5 6.6-2.6-3.1-8.1-7.2-4.1-9.1-4.7-13.8-4.6-3 0-5.8.2-6.4.4m43.5 4.5c-2.4 1.6 3 5.7 8.4 6.5 6.1.9 13.1-1.2 13.1-4 0-1.6-.9-2.1-4.5-2.7-6.8-1-15.3-.9-17 .2m-78.5 5.6c-2.7 1.4-5.4 3-5.9 3.5-.6.5-2 .9-3.2.9-3.1 0-4.1 2-1.9 3.7 3.4 2.4 11.6 1.6 21.4-2.2 4.9-1.9 10.2-3.5 11.6-3.5 3.6 0 3.1-1.9-1-3.6-5.6-2.3-15.1-1.8-21 1.2m17.8 5.7c-4.8 1.1-5.1 1.7-2.5 4 4.3 3.8 14.1 4.4 20.5 1.1 4-2.1 2.9-3.6-3.9-5-6.9-1.5-8.5-1.5-14.1-.1"/></svg>