<svg xmlns="http://www.w3.org/2000/svg" viewBox="0 0 1254 1254" fill="#23231D"><path d="M670.5 150.7c-22 3-42.2 13.8-50.6 27.2l-2.9 4.4-6.8-.2c-27.1-.9-55.8 22.3-74.5 59.9-12.2 24.8-19.4 45.9-22.3 65.3-1.6 11.2-1.6 20.8.2 52.7.7 12.1-.3 17.6-3.2 17.3-75.1-7.3-164-1.6-186.1 11.8l-3.1 2-1.7-5.6c-2.8-9.9-11.9-17.4-21.1-17.5-11.3 0-20.9 7.9-26.2 21.8-3 7.7-7.5 25.6-8.8 34.4l-.6 4.8H257c-3.2 0-8.9.9-12.6 2.1-15 4.5-48.1 24.4-56.7 33.9-5.9 6.5-7.7 12.6-7.7 25.5 0 10-.1 10.6-3.9 18.5-6.6 13.6-6.4 22.3.6 36.4 3.2 6.3 3.4 7.6 3.7 17.5.4 13 2.3 18.4 10 28.5 4.6 6 5.7 8.3 7 14.5 2.7 13.1 8.4 22.8 17.1 29l4.3 3.1-1.3 6.7c-2.2 11.5-5.2 23.6-11.5 45.3-5.8 20.7-6 21-11.5 27.7-6.8 8.3-15.6 25.8-18.9 37.4-8.1 28.7-5 57.5 9.4 87.5 8.3 17.2 21.1 32.3 36.4 42.6 8 5.5 22.6 12.3 31.6 14.7 4.1 1.1 11 3.3 15.2 5 10.5 4.1 21.9 6.1 35.3 6.1 28.2 0 52-9.5 90.3-36.1 6.2-4.4 11.4-7.9 11.6-7.9s.6 2.5 1 5.6c1 8.4 7.7 36.5 14 58.2 3.4 11.8 7.2 28.2 9.6 42 2.3 12.5 4.6 24.6 5.2 26.9.9 3.7.6 5.5-2.7 16-5.3 17-6.5 23.3-6.5 36.9 0 9.5-.4 13.3-2 18-3.3 9.6-6 21.1-5.4 22.8.4.9 1.8 1.6 3.3 1.6s3.1.4 3.6.9c1.1 1 16.1 3 45.5 6 125.3 13 292.6 13.4 426.9 1.1 11.8-1.1 22-2 22.7-2s2-.7 2.9-1.6c1.9-2 1.9-2.5-3.1-27.1-1.9-9.4-3.4-18.4-3.4-20 0-2.4 3.1-20.2 4.7-27.3.4-1.6 1 .5 1.7 6.4 1.1 8.2 1 9.3-1.1 15.5-1.2 3.6-2.3 8-2.3 9.7 0 4.2 2.4 10.7 5.5 14.8 2.4 3.1 2.5 3.9 2.3 14.3-.2 8.1.1 11.4 1.1 12.6 1.6 2 5.6 2.2 6.8.4.4-.6.9-6.8.9-13.7l.1-12.5-3.4-5.7c-4-6.5-4.6-12.6-1.9-19 2-4.7 2-10.4.1-20.5-4.6-23.6-4.7-26.2-2-42.6 3.1-19.3 4.5-34.2 4.5-48.7 0-8.7.7-15.2 2.9-26 1.6-8 4.3-22.6 6.1-32.5s5.4-27.9 8.1-40c5-22.7 7.4-40.3 5.8-41.9-1.2-1.3-1.2-1.3-5.2 10.9-7.8 23.9-13 45.9-17.8 75.5-1.1 6.9-2.2 12.6-2.3 12.7s-1-4.4-1.9-10c-1-5.6-3.7-18.1-6.1-27.7l-4.3-17.4 2.3-3.6c6.8-10.4 10.3-29.8 7.4-42.1-1.6-6.8-6.2-16.9-8.6-19-1.1-.8-4.8-2.3-8.4-3.3-21.5-5.8-36-23.7-36-44.7 0-11.4 1.2-15.2 10.6-34.9 13.8-28.8 14.9-41.9 4.9-62.6-5.3-10.9-15-21.8-28.9-32.6-16.8-13-23.8-19.3-30.2-27.3-8.3-10.3-14.9-23.1-18.1-35.3-2.4-9.1-2.5-11.3-2.7-36.7-.1-18.2-.6-27.9-1.4-29.8-.6-1.5-.7-2.7-.2-2.7 1.3 0 3.8 9 5 18 .5 4.1 1 13.8 1 21.6 0 15.1.9 22.2 4.2 32.4 6.3 19.6 18.3 35.1 39.8 51.5 17.6 13.3 27.4 23.3 34.2 34.7 5.3 8.9 7.8 17.3 8.5 28.3.8 12.8-1.7 22-11.1 41.1-10.7 21.7-12.8 30-10.3 42 2.1 9.8 5.9 16.8 12.7 23.5 6 5.9 15.6 11.4 21.9 12.5 2.2.4 5.3 2.2 7.9 4.6 5.5 5 16.4 10.2 24.6 11.8 6.3 1.2 12.2.7 21.6-1.6 2.1-.6 2.3-.4 1.3.7-1.7 1.7-1.6 8.7.1 17.9 3.2 16.4 7.6 54 11.6 98.5 5.4 59.4 8.1 82.6 12.1 105 2.8 15.1 3.1 18.3 2.5 28.5-.9 15.8-.8 15.6-6.6 16.4-6.3.8-11.1 2.6-10.4 3.7.3.5 4.1.9 8.4.9h7.9l1.1 3.8c2.4 9 3.1 15.3 2.8 24.2l-.3 9.5 4.3.3c6.6.5 7.2-.5 7.2-12.2 0-8.8-1-16-3.5-25.7-.6-2.3-.3-2.7 2.6-3.5 5-1.4 4.9-3.4-.1-3.4-4.1 0-4.2-.1-3.6-2.7.3-1.6.9-7.8 1.2-13.8.6-9.5.3-12.9-1.9-24.5-4.1-21-5.6-32.3-9.1-69.5-9.7-101.4-11.7-116.7-19.2-151-2.1-9.1-2.4-9.7-6.1-10-7.3-.6-15.7-8.8-19.9-19.5-2.4-6.1-2.6-7.8-2.2-16.7.4-9 .8-10.7 5.2-21.3 9.1-21.5 10.8-27.5 11.4-38.8.2-5.6.7-10.2.9-10.2.8 0 12.8 8.4 20.5 14.3 12.4 9.5 27.8 28.9 36.1 45.3 11.5 22.8 20.2 50.7 26.6 84.9 5.9 31.9 11.4 74.6 14.5 112.5 6 72.6 5.9 71.8 10 76.7 6.3 7.6 7.2 15 3.1 25.9-3.2 8.4-3.1 9 .4 12.3 4.2 3.9 5 10.3 2.3 18.5-1.7 5.1-2 7.8-1.5 13.6.8 9.6 3.2 12.1 7.4 7.9 1.9-1.9 2-2.8 1.4-8.3-.5-5.1-.2-7.6 1.5-12.7 2.7-7.9 2.1-14.4-1.9-21.4l-2.8-4.9 2-4.6c1.3-3.1 2-6.8 2-12 .1-8.1-1.6-12.7-7.3-20-2.7-3.4-2.8-4.3-4.4-24-.9-11.3-2.6-31.3-3.7-44.5-3.5-43.2-11.9-103.3-18.5-133-8.1-36.2-19.7-66.7-32.7-85.6l-4.4-6.5v-9.9c0-19.6-6.6-31.2-27.6-48.8-10.4-8.8-15.6-18.9-16.4-32.2-.4-6.5.1-10.9 2.7-23 3.7-17.7 4.3-33 1.7-43.2-4.8-18.5-17.6-34-38.9-47.2-20-12.3-29.8-23-34.3-37.4-3.5-10.9-4-20.4-2.1-37.4.9-7.8 1.6-17.5 1.6-21.6 0-24.2-9.6-43.2-29.6-58.5-6.6-5.1-8.5-10.4-14.4-42.2-8.3-43.8-25.7-78.1-53.9-106-26.8-26.5-59.8-42.4-98.4-47.5-10.8-1.4-30.8-1.8-38.2-.8m-14 21.1c-.6.5-3.1 1.7-5.7 2.6-7.1 2.6-18.6 10.5-24.7 17-2.9 3.1-5.5 5.5-5.8 5.3-.5-.6 3.3-7.5 5.6-10.1 3.4-3.9 13.9-10.1 21.6-12.8 8.4-2.9 10.6-3.4 9-2m42 19.1c19.6 4.1 35.4 13.1 52.1 29.6 24.4 24.2 34.4 46.5 40.9 92 1.4 9.9 3.7 22 5 27 7.4 26.4 22.8 43.1 47.2 51.1 6.9 2.3 8.2 3 6 3.2-1.6.2-6.1-.6-10-1.8-27.3-8.2-43.9-30.8-50.2-68.2-.8-5.1-2.6-16.1-4-24.3-4.9-30.5-15.4-53.6-33.3-72.6-17-18.1-37.6-29.5-60.5-33.5-14.6-2.5-28.4-.9-40.7 4.9-3.6 1.7-6.9 3.3-7.5 3.5-.5.3-.2-.4.8-1.5 2.6-2.9 12.4-8 18.8-9.7 7.8-2.1 24.6-2 35.4.3m-84.4 11.4c-.5 1.2-1.4 6.3-2.2 11.4-1 7.4-1 10.2 0 15 2.6 11.9 7.5 19.4 15.3 23.4 6.4 3.3 11.2 1.9 7.6-2.1-.7-.7 0-.4 1.6.8 3.7 2.8 4.4 2.8 5.2-.6 1.3-5.5 6.9-14.4 11.6-18.7 9.5-8.6 21-12.1 35.8-11.2 32.4 2.1 61.8 30.1 75.9 72.2 1.6 5 5 19.1 7.6 31.5 4.9 24.5 7.9 34.7 13.3 45.5 9.6 19.4 21.5 30.3 39.5 36 9.4 3 23.2 3.5 29.2.9 4.4-1.8 5.7-1.2 2.2 1.1-3.9 2.5-8.6 3.5-16.7 3.5-18.3 0-36.2-9.3-48-24.8-10.6-14-17-31.2-23.5-63.2-7.7-37.6-18.1-59.9-36.7-78.2-19.8-19.5-47.3-26.7-67.5-17.8-9.8 4.3-21.7 19.8-17.4 22.4.5.3 4.2-1 8.3-2.9 4-1.9 9.6-3.7 12.3-4l5-.6-4.8 2c-5.1 2.1-8.1 4.1-7.2 4.9.2.3 5.5.6 11.7.7 13.8.3 18.7 1.5 30.2 7.3 23.5 12 39.5 37.7 50.5 80.9 1.2 4.5 2.4 8.9 2.7 9.8.5 1.3.1 1.3-2.7-.4-8.9-5.1-23-6.4-39.3-3.6-10.8 1.9-14.9 3.6-17.1 6.9-1.4 2.1-1.5 2.9-.5 4.1 1.6 1.9 6.3 1.9 19.1 0 14.6-2.2 28-2.2 35.6 0 3.5 1 6.6 2.3 7.1 2.9.4.6 2.3 5.1 4.1 10.1 7.8 21.1 17.3 34.9 29.2 42.6l4.9 3.1v10.3c0 5.7.4 10.6.9 10.9 1.7 1.1 3.9-3 5.6-10.2 1-3.9 1.8-7.2 1.9-7.2 0 0 2.3.7 5 1.5s6.3 1.5 7.9 1.5h3l-.6 7.5c-.7 8.4-4.5 20-8.3 25.8-2.8 4.2-7.8 7.7-11.1 7.7-2.1 0-2.2-.3-2-9.4.1-6.6-.2-9.9-1.1-10.8-2-2-2.6-.3-5.6 15.5-6.1 32.2-12.4 47.9-25.9 65.4-6.1 7.9-19.5 21.1-29 28.6-4.4 3.4-11.1 8.8-15.1 11.9-3.9 3.2-9.7 7.1-12.8 8.8-19.8 10.7-53.9 10.2-68.4-1-2.2-1.6-7.7-5.5-12.4-8.7-14.2-9.6-32.1-24.7-39-32.8-14.2-16.8-21.7-31.8-27.1-54.1-2.9-12.2-2.9-12.5-2.9-43.2v-31l-3-5.7c-2.9-5.5-3-6.1-3-19.6 0-13.4.1-14.2 2.9-19.7 4.5-9 6.9-18.2 8.6-33 2.1-18.2 3.8-24.9 9.2-36.1 5.7-11.9 13.1-19.7 22.9-24.3 5.7-2.7 6.4-3.3 5-4.3-.9-.7-1.6-1.5-1.6-1.9 0-.3 3.7-.6 8.3-.6 7.9 0 8.4-.2 9.7-2.5 1.2-2.2 1-2.7-2-6.1-4.9-5.6-7.2-11.8-7.8-20.9-.5-8.5 1.5-18.8 4.4-23.2 1.9-2.9 2.6-2.9 1.5 0M585.5 243c-.3.5-1.4 1-2.4 1-3.1 0-15.5 6.8-20.4 11-9.8 8.7-17.4 21.1-22.8 37.3-1.7 5-3.4 9.4-3.6 9.7-1.4 1.3 1-11.8 3.5-19.4 6.4-18.9 21.4-35 36.2-39 6.5-1.7 10.4-2 9.5-.6m229.1 77.2c6.2 12.1 17.1 21.4 38.4 32.8 16.2 8.6 20.9 12 28.8 20.4 10.4 11.1 15.3 24.2 15.1 40.1l-.2 9-.8-8c-1.1-11.6-2.5-17.1-6.7-25.5-6.3-12.9-15.7-21-37.7-32.5-6-3.2-13.5-7.5-16.6-9.5-9.6-6.6-19.7-19.1-22.4-27.8-1-3.2.2-2.7 2.1 1m-510.6 57c8 4.1 11.3 16.2 9.5 35.1-.6 7-.8 7.6-2.5 6.7-6.4-3.4-25.8-1.5-34.7 3.5-2.6 1.4-4.7 2.4-4.9 2.3-.5-.6 3.5-19.3 5.7-26.3 3.8-12.7 8.7-19.7 15.4-22 5.4-1.9 6.4-1.8 11.5.7m165 4.8c47.6 2.4 75.8 8.1 81 16.3 1.2 1.9 1.3 20.6 1.2 120.2-.1 76-.6 119.8-1.2 123-2 9.6-6.4 14.2-18.7 19.4-9.5 4.1-23.4 7.6-40.6 10.3-12.8 2-17.9 2.2-51.2 2.3-30.2 0-39.3-.3-49.4-1.8-26.2-3.7-44.9-9-55.3-15.6-7.2-4.6-8.9-8.8-10.3-26.1-1.6-20.6-2.2-227.9-.6-230.9 6.3-11.7 79.9-20.4 145.1-17.1m380.2 49c7.9 12.2 9.5 32.1 4.5 56.1-5.2 25.2-4.4 38 3.2 53.5 5.6 11.2 15 20.1 34.6 32.4 34.6 21.9 47.7 42.9 46.2 74.5-.8 16.8-5.2 30.3-16.3 49.5-12.6 21.9-16 34.9-13.1 49.4.9 4.2 2.7 10.2 4.1 13.3 1.7 3.6 2.1 5.1 1.1 4.3-2.3-1.9-7.1-12.8-8.4-18.8-3.2-15.5.5-29.7 13.8-53 10-17.5 14.1-31.6 14.1-48 0-12.1-1.9-20.3-7.2-31.2-3.3-6.8-5.7-10.1-12.7-17-8.1-8.1-11.8-10.9-32.7-24-30.6-19.2-40.1-44.9-31.4-84 4.3-18.8 4.7-34.6 1.3-45.5-2.2-7-8.3-17.6-11.7-20.4-1.3-1.1-1.4-1.6-.4-2.3 1.5-.9 6.3 3.9 11 11.2m-542.4-4.9c7.7 1.6 7.9 1.9 8.6 14.7l.7 11.3-3.8-3.8c-4.6-4.6-9.9-7.3-14.5-7.3-1.9 0-7.3-2-13.1-4.9l-9.7-4.8 5.7-2.6c8.6-3.8 16.9-4.6 26.1-2.6M898 467c5.6 16.5 14.2 26.2 36 40.6 9.2 6 18.1 12.8 21.8 16.5 15 15.2 20.7 38.7 14.7 60.9l-1.4 5.5.4-7.2c.8-14.2-2.9-30.2-9.7-41.8-5.7-9.7-14.9-18.9-31-31.2-7.6-5.7-15.9-12.8-18.5-15.8-13.5-15.1-19.2-33.7-16.7-54.1.8-6.9.8-6.8 1.5 6.6.5 10 1.2 15.2 2.9 20m-631.6-29.4c14 3.6 29 12.2 34.5 19.6 5.7 7.7 6.3 20.7 1.2 26.9l-1.6 2.1-5.2-2.1c-19.4-7.6-31.3-7.1-62.5 2.6-20.3 6.3-13.2 8.5 11.7 3.7 7.2-1.4 17.8-2.8 23.6-3.1 9.2-.5 11.6-.3 18 1.7 13.1 3.9 19.9 8.5 23 15.5 3 6.5 2.1 16.6-1.9 21.5-1.7 2-1.9 2.1-8.2.6-13.4-3.2-29-1.4-57.6 6.5-12.2 3.3-15.9 5.2-13.5 6.8 1.8 1.2 6 .6 27.6-3.6 22.3-4.3 29.6-4.9 37.7-3.3 12.8 2.5 17.8 7.6 17.8 18.2 0 5.4-2.5 12.4-5.1 14.4-.8.6-5.9 1.4-11.4 1.8-11 .7-29.8 5.2-46 11-10.5 3.8-12.1 4.8-11 6.6.9 1.5 2.5 1.2 28.5-5.2 13.5-3.3 23.6-5.2 29.5-5.5 8.3-.5 9.2-.4 10.9 1.6 3 3.3 3.4 12.6.7 17.8-2.7 5.4-5.6 7.4-20.8 13.9-15.3 6.6-29.7 14.1-32 16.6-3.9 4.4 4.3 4.3 14.3-.2l4.2-1.8 2.9 3c1.5 1.6 5.9 4.4 9.6 6.2 6.7 3.3 7.1 4.6 1.3 4.6-1.2 0-5.6 1.2-9.7 2.7-6.5 2.3-8.9 2.7-19.4 2.7-11.2 0-12.5-.2-20.2-3.3-14.5-5.7-25.4-14.4-29.3-23.5-1-2.2-2.4-7-3-10.6-1.4-7.7-2.9-10.8-8.8-18-6.5-7.9-7.4-10.8-8.2-24.5-.6-11.3-.8-12.4-4.6-20-3.4-7-3.9-8.9-3.9-15 0-6.2.5-8 4.3-15.9l4.2-8.8-.2-10.7c-.3-13.5.8-16.6 7.8-23 10.8-9.9 42.3-27.7 53.7-30.5 8.2-1.9 9.8-1.9 17.1 0m42.1 15.5c6.1 7.3 6.6 9.4 6.3 27.8l-.3 17-3.2-3.8-3.2-3.9 2.2-4.3c1.8-3.6 2.2-6.1 2.2-13.4 0-9.5-1.8-14.8-6.8-20.3-1.1-1.2-1.6-2.2-1-2.2s2.3 1.4 3.8 3.1m7 78.9c0 5.5-.4 6-2.3 3-1-1.7-1-2.6.3-5 .9-1.7 1.7-3 1.8-3s.2 2.2.2 5M752 563.6c-1.3 20.4-.4 40.2 2.2 50.4 3.1 12 3.1 12.8 1.3 19.8-3.9 14.3-14.6 37.5-34.4 73.8l-8.2 15.1-18.2-.4c-15.4-.4-18.4-.7-19.5-2.1-.7-1-3.9-5.8-7.1-10.7-5.6-8.5-13.5-18.7-28.1-36.1-3.5-4.3-5.8-7.5-4.9-7.2 3.4 1.3 18.1 3.9 18.7 3.3 1-1-1.5-2.1-14.2-6.6l-11.9-4.2-6.4-8.1c-8.6-10.8-19.6-27.3-23.8-35.6l-3.4-6.7 4.1-3.9c7.2-7 10.5-17.2 11.5-36l.6-11.1 9.1 6.5c5 3.6 11.4 8.2 14.1 10.2 11.6 8.7 22.8 12 40.9 12 17.7 0 31.2-3.5 42.3-11 3.2-2.1 12.6-9.5 20.8-16.3 8.3-6.8 15.1-12.3 15.3-12.2.1.1-.3 7.8-.8 17.1m45-7.2c0 4.1-.9 13.6-2.1 21.3-2.4 15.7-2.1 25.3 1.1 35.5 3.4 11 8.5 18.1 24.5 34.2 16.1 16.1 20.3 22.3 24.1 35.1 2.1 7 2.3 21.7.5 30.9-.6 3.3-1.1 9.4-1.1 13.5 0 20.2 9.3 34.8 31.7 50.2 18.9 13 27.1 23.6 29.5 38.2 2.2 13.5-2.8 28.5-12.3 37.1-6.6 5.9-8.2 5.9-3-.1 8.8-10 13.4-24.8 11.1-36-2.8-13.6-10.7-23.6-28-35.4-28.8-19.6-37.3-37.8-32.5-69.8 3.8-25.8-1.8-39.3-26.2-63.1-18.9-18.6-24.1-28.7-25-49.1-.5-9.4-.2-12.3 2.6-24.7 1.7-7.7 3.1-16.5 3.1-19.6s.5-5.6 1-5.6c.6 0 1 3.1 1 7.4m-481 14.8-.1 7.3-2-4c-1.9-3.8-1.9-4.1-.2-7.2 1-1.8 1.9-3.3 2-3.3.2 0 .3 3.3.3 7.2m280.5 8.2c3.8 1.1 4 1.4 3.7 4.6-.4 3.4-3.4 9.9-7 15.4l-2 2.8-2.1-4.7c-2.5-5.6-2.7-9.3-.6-10.1 2.4-1 1.8-3.4-.9-3.4-8.9 0-6.5 16.9 5.4 38 10.6 18.6 30.8 45.2 62.3 81.9 2.7 3.1 6 7.7 7.3 10.3s2.8 4.9 3.4 5.3c2.5 1.6.1 2-12.3 2.1-7.2.1-19.6.5-27.4.9l-14.2.6-.5-3.3c-.3-1.8-1.5-8.8-2.6-15.6s-2.3-13.5-2.6-14.9c-.7-2.4-.6-2.4 4.4 1.1 2.7 2 9.7 5.9 15.5 8.6l10.4 4.9.6 4.5c.4 2.5 1.3 6.1 2.1 8.1 1.3 3 2 3.5 4.9 3.5 1.8 0 3.6-.2 3.9-.5.7-.8-1.2-8.6-2.5-10.3-1.7-2.2.3-1.3 6.4 2.8 8.9 6.1 11 3.3 3.7-4.7-3.4-3.7-7.4-6.1-19.3-11.9-24.4-11.8-29.4-15.8-48.2-37.9-10.7-12.6-16.6-17.7-24.5-21.6l-4.8-2.3v-33.5l4.4-6.3c2.5-3.5 6-7.8 8-9.7 5.6-5.4 16.3-7.4 25.1-4.7m-282.6 28.8c-1.5 1.3-3.8 1.8-7.8 1.7-5.6 0-5.6 0-3.1-1.7 6-4.1 10-8.6 11.2-12.6l1.3-4.1.3 7.5c.3 6.7.1 7.7-1.9 9.2m452.4-3.3c4.8 4.5 8.3 11.1 10.3 19.8 2.2 9.6 1.2 18.7-4.7 40.3-3.5 12.8-8.9 19.5-29.9 36.8-6.3 5.2-13 11.1-14.7 13.1-3.8 4.2-4.3 3.1-1-1.9 6.6-9.9 24.3-45.2 30.2-60.3 6.3-16.1 8.8-27.2 8.3-37.2-.3-7.1-.6-8.5-3-11.4-1.6-1.8-2.8-3.7-2.8-4.3 0-1.2 1.9.1 7.3 5.1m-467.8 10.8c4 1.5 13.1 1.4 16.8-.2 1.5-.6 1.7 0 1.7 5.8v6.6l-4.6.7c-5.7.8-13.2-.2-19.7-2.6-5.9-2.3-13.2-6.9-12.2-7.8 1.5-1.5 11.1-5 12.5-4.5.8.3 3.3 1.2 5.5 2m673.7 21.5c3.4 6.4 9.7 13.4 20.9 23 11.1 9.5 16.7 19.6 18.3 33.1.8 6.9-.8 5-3.8-4.5-3.8-12.2-7.1-16.7-22.2-30.6-7.2-6.5-11-10.9-13.2-15-3.8-7.2-6.2-15.4-6.1-20.6.1-3.8.1-3.7 1.4 2.1.8 3.5 2.9 9.1 4.7 12.5m-665.6-.2h4.4v7.3c0 15.7 4.4 40.4 11.6 64.8C335.2 752 337 762 335.1 778c-3.5 28-18.3 51.1-41.1 63.8-8.6 4.8-16.7 6.4-29.6 6-11.1-.3-11.3-.3-20.8-5.2-15.6-7.9-28.5-21.4-35.7-37.2-5.5-12.1-8-24.2-8.1-38.9-.1-18.5 2.9-35.5 12.2-68.5 6.3-22.6 13-49.5 13-52.5 0-2.2.4-2.6 1.8-2.1.9.3 5.8 2 10.7 3.8 8.1 2.9 10.1 3.2 20 3.3 8.1 0 12.4-.5 16.5-1.9 7.2-2.4 18.4-8.2 20.6-10.8 1.4-1.4 2.6-1.8 4.8-1.4 1.5.3 4.8.6 7.2.6m258.6 8.6c4.7 2.4 11.3 8.9 19.9 19.6 7.3 8.9 8 10.1 8.8 16 .6 3.5 2.4 14.4 4.1 24.2 1.6 9.8 2.9 18 2.7 18.2-.3.3-25.9 3.4-28 3.4-.8 0-1.3-3.1-1.4-9.6-.3-9.1-1.2-12.7-3.8-14.9-.7-.6-1.5-4.4-1.9-8.5-.5-6.3-1.5-18.1-4-45.8-.2-2.3-.2-4.2.1-4.2.2 0 1.8.7 3.5 1.6m-237.8 14.8c2.2 1.8 5.7 4.1 7.6 5.1 5.3 2.7 21.8 8.1 30.9 10l8.1 1.8-3.2 1.9c-1.8 1.1-7.6 6.1-12.8 11.2-10.8 10.6-19.2 16.3-20.9 14.2-.6-.7-2.9-2.1-5.1-3.1-3.1-1.4-4.2-2.6-5-5.4-2.2-7.6-6.8-32.9-7.4-40.1l-.6-7.5 2.1 4.3c1.2 2.3 4 5.8 6.3 7.6M556 677c2.1 19.3 2.2 24.6.5 22.9-.4-.4-2.3-17.8-4-37.7-.4-4.2-.3-7.2.2-7.2s2 9.9 3.3 22m223-5.5c0 6 4.2 18.7 8.7 26.3 2 3.4 8.6 11.4 14.5 17.8 23.7 25.3 29.5 34.9 33.8 56 3.5 17.5 12.2 30.6 27.2 41.1 4.3 3 7.7 5.7 7.4 6-1 1-14.5-7-19.7-11.6-3-2.7-7.1-7.8-9.3-11.4-2.1-3.7-4.2-6.5-4.6-6.2-.4.2-1 2.5-1.3 4.9-1.4 10.2-10.5 24.4-18.1 28.3-3 1.5-2.9 1.4 1.1-3 14.1-15.3 17.4-41.6 7.9-63-2.5-5.7-5.5-8.2-8.6-7.4-1.1.3-4.9-.2-8.7-1-9.1-1.9-40.4-7-50.6-8.3-38-4.7-70.9-6.4-108.7-5.7-23.9.5-69.4 3.2-83.4 5-1.1.1-2.1-.3-2.3-.9-.4-1.3 15.4-3.9 36.7-6 24.7-2.5 85.6-3 112.5-1 34.4 2.6 62 6.4 88.7 12.2 6.2 1.3 12.5 2.7 14 3 1.5.4 3.5.3 4.4 0 1.3-.5 1.3-1-.7-3.8-3.2-4.7-12-14.8-22.4-25.8-10.5-11-14.5-17-17.5-26-2.6-7.4-4.1-25.8-2.1-24.6.6.4 1.1 2.7 1.1 5.1m-256.6 4.7c1.2 7 2.8 25 2.2 25.5-1.2 1.2-1.5-.4-3-13.6-1.9-15.6-1.8-15.1-.7-15.1.5 0 1.1 1.5 1.5 3.2m-10.1 1c1.6 6.3 3.6 27.3 2.7 27.6-.6.2-1.7 1.7-2.6 3.4-1.2 2.4-1.4 4.6-.9 10.2.9 8.6 1.8 11.3 5.3 14.8 2.3 2.5 2.4 2.8.6 2.8-2.7 0-8 3.5-9.5 6.2-.7 1.3-2.7 7.8-4.4 14.6-1.7 6.7-3.4 12.5-3.7 12.8-.4.3-.9-2.5-1.3-6.3-2.3-23-9.4-63.5-13.4-76.3-1.1-3.5-1.9-6.5-1.8-6.6.1-.2 6-1.2 13.2-2.4 7.1-1.1 13.1-2.3 13.4-2.5 1-1.1 1.9-.4 2.4 1.7m-108.8 3.9c13.1 1.2 52.5 1.5 62.7.4l6.3-.7 3.3 13.9c6.3 26.4 14.2 80.6 14.5 99.8.2 9.8.1 10.4-8 37-4.5 14.8-8.7 29-9.4 31.5l-1.2 4.5-.8-3.5c-.8-3.7-4.9-34.7-10-75.5-1.7-13.8-4-29.5-5.1-35s-2.4-13.8-2.9-18.5c-1.2-12-5.5-32.6-8.7-41.8l-2.7-7.7-5.2-.3c-8.3-.5-16.4 4.4-31.9 18.9-11.9 11.2-14.8 13-26.8 16.9-5.3 1.7-10.9 4.1-12.4 5.4l-2.7 2.2-9-9.3c-4.9-5.1-8.5-9.3-8-9.3.6 0 3.8-1.3 7.2-2.9 4.3-2.1 8.6-5.4 14-10.8 11.4-11.6 19.2-17.4 22.3-16.8 1.4.2 7.9.9 14.5 1.6M778.4 705c1.6 2.5 3.9 5.7 5.3 7.1 2.2 2.4 2.3 3 1.7 10.7-.8 9.3-.4 9-10.5 7.2-4.9-.9-28-3.9-42.2-5.5l-5.8-.7 8.3-6.5c4.6-3.6 9.6-7.7 11.2-9.1l2.9-2.7-.8 6.5c-1.5 12-1.4 12.3 2.5 13.1 2.3.5 3.9.4 4.7-.4.6-.7 1.9-7.2 2.7-14.6l1.6-13.4 5.3-5.7 5.2-5.6 2.6 7.5c1.4 4.2 3.8 9.6 5.3 12.1m-338.9-5.1c.8 2.6 2.6 9.8 3.9 15.8l2.3 11-5.9 4.9c-3.3 2.7-7.1 6.4-8.4 8.2-3.8 4.9-17 15.8-24.7 20.4-6.7 4-25.3 11.1-26.8 10.3-.3-.3-1-2.6-1.4-5.2-.8-5.6-5.6-19.1-8.4-23.9l-2-3.4 3.7-2.5c2-1.4 6.6-3.4 10.2-4.5 10.8-3.3 19.7-9 31.9-20.4 9.9-9.3 19.1-15.6 22.7-15.6.7 0 2 2.2 2.9 4.9m125.3 8.6c.7 1.4 1.2 6.1 1.2 10.4 0 9.3.6 8.8-11.5 11-2.7.5-9.9 1.2-15.8 1.6-10.2.7-10.9.6-10.5-1.1.3-1.5 1.6-1.9 8.8-2.1 4.7-.2 12.3-.9 17-1.6l8.5-1.2.3-6.5c.3-7.6-1.2-10.9-4.4-9.2-1 .6-8.7 1.6-17 2.2-12.4 1-15.5 1-17.2-.1-3.4-2.2-4.4-.2-3.6 7.5.6 5.6 1.1 7 3 8.3 2.9 1.8 3.1 3.3.6 3.3-3.6 0-6.2-4.3-7.1-11.6-1.3-10.8-2.7-10.1 23.4-12.4 4.4-.4 11.4-.8 15.6-.9 7.2-.1 7.6 0 8.7 2.4m-224.7 8.8c3.3 2.7 7 7.1 8.8 10.2 1.9 3.4 3.8 5.5 4.9 5.5 2 0 7.8 8.7 12 18.1 5.2 11.5 6.7 20.4 6.6 38.4 0 13.9-.4 17.2-2.6 25.6-2.6 9.6-9.3 26.5-10.9 27.5-1.3.8-10.4-3.5-12.8-6-1.1-1.2-3.4-4.9-5-8.2s-4.5-7.4-6.4-9l-3.4-3.1 2.3-4.4c3.5-6.5 8.3-22.1 9.2-29.3l.7-6.3 3.8 2.4c2.1 1.3 5.6 5.2 8.1 9.1 3.2 5.1 5.5 7.4 9 9.2 5.3 2.8 6.6 2.1 6.6-3.7 0-2.5-.9-3.9-5-7.3-2.8-2.4-5.8-5.7-6.6-7.4-2.6-5-8.5-10.5-12-11.2-3.1-.6-3.2-.8-3.9-6.7-.9-8.9-3.3-21.4-5.1-27.2-.8-2.8-2.6-8.4-3.9-12.5s-2.7-8.4-3.1-9.5c-.8-2.3-1.4-2.6 8.7 5.8m460.4 13.4c3 3.5 3.5 4.4 2 4-1.1-.3-3.2-.8-4.7-1.1-2.4-.6-2.8-1.1-2.8-4.1 0-1.9.3-3.5.8-3.4.4 0 2.5 2.1 4.7 4.6m-606.1 5.9c-.8 3.8-1.8 13.5-2.1 21.7-.6 14.2-.6 14.7-2.8 15.3-4 1-7.2 5.5-7.9 10.9-.7 6 .7 9.4 2.3 5.3 1.1-2.9 4.7-5.8 7.2-5.8 1.3 0 2.2 2.2 3.8 9 1.2 5 3.6 12 5.3 15.7 2.3 5.2 2.7 6.8 1.7 7.2-.8.2-3 2-5.1 4-3.9 3.9-6.4 10.7-5.2 14.4 1.1 3.9-1.2.5-3.6-5.3-12.1-28.8-11.1-62.9 2.7-90.8 2.5-5.1 4.7-9.1 4.9-8.9s-.3 3.5-1.2 7.3m253.7 7.2c.4 2.6 1.2 7.6 1.8 11.2s.8 11.4.5 17.5c-.5 8 0 16 1.5 29.5 4.5 39.3 9 70.8 12 84 .9 3.9.3 6.8-5.1 27.4-3.3 12.7-6.1 23.2-6.3 23.4-.1.1-2-6.6-4.3-15-5.5-20.6-9.7-41.5-12.7-63.8l-2.4-18.5 1.9-5.8c2-6.1 3.7-15.7 2.7-15.7-.3 0-2.8 4.6-5.5 10.3-4.8 10.2-5.1 10.5-12.8 15.9-20.7 14.5-43.3 22.9-57.8 21.3-3.6-.3-6.6-1-6.6-1.3 0-.4 2-3.4 4.5-6.7 2.4-3.3 6.6-10.6 9.2-16.2l4.8-10.2 5.5-.6c21.3-2.5 39.8-12.6 56.4-30.8 6.4-7.1 7.7-9.2 8.7-13.6.6-2.9.9-5.5.6-5.8-.3-.2-4.7 3.1-9.7 7.4-24.4 20.9-30 24.6-43.8 28.9-9.5 2.9-14.6 3.2-13.8.6 2-6.5 3.6-17.7 3.6-25.7v-9.3l3.1-1.1c1.8-.6 3.8-1.1 4.6-1.1 3.5 0 18.1-6.7 26.1-11.9 9.2-6.1 22.3-17.9 28.2-25.4 1.9-2.5 3.7-4.3 3.9-4.1.3.2.8 2.6 1.2 5.2m102.8 5.2c6.8 3.4 9 11.8 4.8 18.1-2.7 4-6 5.9-10.5 5.9-11.9 0-17.4-13.1-9.1-21.6 4.6-4.7 8.9-5.4 14.8-2.4m-23.3 4c-3.2 8-1.5 16 4.4 21.4 4.7 4.2 7.2 5 15 4.4 6.9-.5 12.2-4 15.2-9.9 2-3.9 2.3-11.1.7-15.8-1.8-5.2-.1-4.9 2.2.4 4.6 10.4.5 21.4-10.1 26.8-4.7 2.4-6.3 2.8-11.2 2.4-17.3-1.5-26.1-18.2-17-32.5 2.2-3.4 2.7-1.8.8 2.8m408.9 3c1 3 3 7.3 4.5 9.5 4.1 6.1 4.4 7.3 1 3.5-3.7-4.2-7.7-12.1-8.6-17s.8-2.7 3.1 4m19.8 21.2c2.1 2.1 3.4 3.8 2.9 3.8s-2.5-1.6-4.5-3.5-4.2-3.5-5-3.5c-1 0-1.6-1.3-1.9-3.7l-.4-3.7 2.5 3.4c1.4 1.9 4.3 5.1 6.4 7.2m-725.7 67.9c3.5 2.3 6.4 4.5 6.4 4.9s-.7 1.3-1.5 2c-2.2 1.9-4.8 11.5-4 15.3 1 5.2 2.7 9 5 11.7 2.2 2.5 3.9 6 2.9 6-1.1 0-9.3-4.6-14.9-8.3-6.3-4.3-17.1-14.6-21.9-21-2.1-2.7-2.6-4-1.8-5 .7-.8.6-2.8-.4-6.6-2-8 .4-15.8 5.8-18.7 2.1-1.1 2.8-.6 10.1 7.2 4.3 4.6 10.7 10.2 14.3 12.5m97.5-17.9c1 1.3 3.5 5.3 5.5 9.1 3.9 7.2 8.5 11.6 15.5 14.5l4.3 1.9-10.4 10.4c-12.5 12.4-21.9 18.9-34.9 24-14 5.5-24.2 7.3-37.1 6.6-12.7-.7-17.3-1.9-18.7-5-.9-1.9-.8-2.6.6-3.6 1.3-.9 1.3-1.3.3-1.7-4.1-1.8-8.3-6.9-9.8-12-1.7-6-1.3-10.1 1.7-15l1.9-3.2 4.3 1.5c4.7 1.7 20.4 2.2 28.5 1l5.2-.8v3.5c0 1.9 1.1 6.5 2.4 10.2 1.9 5.2 3.8 8.1 7.9 12.2 5.8 5.8 7.6 6.2 12.1 2.9 1.9-1.4 1.8-1.6-2.3-6.3-5.6-6.4-8.8-12.8-10-20.1-.8-4.8-.7-6 .6-6.8.8-.6 4.8-3.1 8.8-5.7 4-2.7 10.4-8.1 14.2-12.2 3.7-4.1 7-7.5 7.1-7.6.2 0 1.2 1 2.3 2.2m99 40.3c1.8 18.7 8.8 50.7 19.1 87.2 1 3.6.8 5.8-1.7 17-1.6 7-3.1 13.6-3.5 14.6-.3 1.1-2.1-6.9-3.9-17.8-2-12.1-5.1-26-8.1-36.3-6.4-22-10.3-37.5-13.8-55.4l-2.9-14.7 2.3-.5c1.3-.4 4.2-2.9 6.6-5.6 4.2-5 4.3-5 4.5-2.3.2 1.6.8 7.7 1.4 13.8m-72.1 8.2c6.1 1.4 13.7 1.3 20.8-.3 5.2-1.1-17.3 12.4-30.1 18.1-6.8 3.1-6.9 3.1-15 1.9-8.5-1.3-11.7-2.2-11.7-3.3 0-.3 2.4-1.9 5.4-3.4 2.9-1.5 8.9-5.7 13.2-9.2 5-4 8.5-6.2 9.4-5.8.8.3 4.4 1.2 8 2M310.2 899c1.8 1.1 4.3 2 5.6 2s2 .4 1.7 1c-.7 1.2-24.4 1.2-29 0l-3-.8 3.5-.2c1.9-.1 6.2-1 9.5-2 7.9-2.3 7.9-2.3 11.7 0"/><path d="M587.9 349.3c-8.8 2.5-19.9 11-19.9 15.4 0 1.8.8 1.6 10-2.4l6.5-2.8h22.7c25.2 0 26.8-.4 23.2-5.2-1.2-1.6-3.8-3.4-6-4.2-5.4-2-30.4-2.5-36.5-.8m129 26.5c-6 2.5-10.6 5.9-13 9.9-3.1 4.9-1.4 5.8 3.4 1.9 6.8-5.4 10.5-7 8.7-3.7-1.6 3.1-1.2 9.3.9 12.7 2.3 3.8 7.7 5.9 12.6 5 6.5-1.3 11-9.9 8.6-16.7-.6-1.8-.9-3.4-.7-3.6.7-.7 7.5 2.5 11.1 5.2 3.4 2.7 6.5 3 7.2.8.6-1.8-5.9-7.7-11.3-10.4-6.7-3.2-20.8-3.8-27.5-1.1m-123.2 4.6c-5.7 2.1-11.5 6.3-13.7 9.9-2.4 3.9-2.4 4.3-.5 5.1.9.3 2.9-.7 4.8-2.3 3.3-2.9 10.8-7.1 12.6-7.1.7 0 .7.9.1 2.6-3.1 8.1 2.6 18.4 10.2 18.4 8.3 0 13.4-6.1 12.6-15.1l-.5-4.8 3.1 2.1c1.7 1.2 4.1 3 5.3 4.1 3 2.7 4.7 1.4 2.8-2.3-2-3.9-8.1-8.7-13.4-10.5-5.5-1.9-18.2-1.9-23.4-.1m212.8 42.3c-.4 1-.7 3.7-.6 6 .2 2.3-.5 5.5-1.4 7.2-2.9 5.7.6 6.6 3.9 1 1.9-3.2 2.3-7.6 1.1-12.8-.7-3.5-1.9-4-3-1.4M639 449.4c-1.5 4.5-.4 8.1 3.3 11.2 2.7 2.3 3.7 2.5 8.1 2 4-.5 5.9-.2 9.1 1.4 5.3 2.7 11.1 2.6 16.9-.5 3.8-2 5.9-2.5 10.7-2.3 5.7.3 6.2.1 9-3 3.2-3.6 3.8-7.7 1.4-10.8-1.3-1.8-1.4-1.6-1.5 2.4 0 3.2-.6 4.9-2.5 6.8L691 459l-2-2c-3.2-3.2-7.8-2.2-13.7 3-4.6 4-9.5 4-15.4 0-4.9-3.3-10.3-4-11.7-1.4-.8 1.4-1.2 1.4-3.1.3-2.6-1.6-3.5-4.6-2.9-9.4.5-4.6-1.7-4.7-3.2-.1m81.4 37.1c-.7 1.6-8.9 4.9-14.9 5.9-2.3.4-7.8 0-12.8-.8-7-1.3-9.8-1.3-13.5-.5-2.6.6-10 1.2-16.4 1.3-6.4 0-12.1.5-12.7 1.1-1.1 1.1 19.8 1.1 31.4 0 4-.4 8.5-.3 10.5.3l3.5 1-3.5.1c-1.9.1-6.2.8-9.5 1.6-7.6 1.9-17.5 1.9-34.5 0-16-1.7-20.9-3-23.1-5.7-2-2.6-4.6-1.8-6 1.8-1.2 3.3.2 5.4 2.5 3.5 1.2-1 2.4-.7 6.4 1.3 11.4 5.8 27.6 9 43.7 8.9 13.1-.2 36.8-6.5 46-12.4 2.8-1.8 5.4-2.7 6.5-2.4 2.9.9 3.4-1.4.9-4.1-2.6-2.8-3.7-3-4.5-.9m-75 26.4c1.1 1.2 4.7 3.5 8.1 5.2 7.4 3.6 17.9 4.8 26.7 3 6.7-1.4 17.8-6.7 17.8-8.5 0-.8-2.7.1-7.2 2.3-7 3.5-7.4 3.6-19.2 3.6s-12.3-.1-19.1-3.5c-3.8-1.9-7.4-3.6-8-3.9-.5-.2-.1.6.9 1.8m-113.8-118c-.4.6-.5 1.5-.2 2 .3.4-2.9 1.6-7.2 2.5-40.1 8.4-130.7 8.2-180-.5-2-.4-7.2 1.5-6.9 2.5 1.6 5.2 29.9 9.6 75.2 11.7 50.1 2.3 113.5-3.2 125.1-10.7 2.6-1.8 3.1-4.5 1.1-6.2s-6.4-2.5-7.1-1.3M324 165.8c-5.7 2.9-11.7 10.2-12.7 15.5-.6 2.8-.6 2.8-2.7.9-10-9.2-26.4-8-32.4 2.3-1.9 3.3-2.2 5.2-2 10.6.4 8.6 4.8 16 14 23.8 6.3 5.4 25.4 17 31.9 19.4 4.2 1.6 5.5.5 11.6-9.9 10.1-17.1 17.3-32.6 18.5-39.3 1.9-11.5-1.5-20.1-9.5-24-5.8-2.8-10.4-2.6-16.7.7m16.4 8.3c2.7 3 2.8 3.6 2.3 10.3-.6 8.6-3.2 15.2-13.5 33.1-4.1 7.1-7.6 13.1-7.7 13.2-.3.5-15.9-8.2-21.7-12-7.6-5.1-16.4-14.8-17.9-19.6-2.5-8.5 2.2-16.1 10.1-16.1 5.6 0 8.2 1.3 14.5 7 6.8 6.2 8.6 5.8 10.4-2.3 3.4-15.3 15.6-22.3 23.5-13.6m78.1 57.3c-1.7.7-4.3 2.8-5.9 4.6-2.7 3.2-2.7 3.2-4.1 1.3-.8-1.2-3.3-2.8-5.6-3.7-9.6-3.9-17.9 1.5-17.9 11.6 0 8.9 3.7 14.3 16.5 24.2 10 7.7 12.1 8.9 13.9 7.9 2.2-1.2 17.5-22.2 19.2-26.2 2.5-5.7 1.4-13.5-2.3-17.2-3.5-3.6-9.3-4.6-13.8-2.5m8.6 6.6c2.1 1.2 2.6 6.1.9 10.5-1.1 3-13.9 20.5-14.9 20.5-1.6 0-17.8-14-19.3-16.8-3.6-6.1-1.4-13.2 4-13.2 1.8 0 4 1.6 7.3 5.1 5.4 5.8 6.9 5.9 9.5.4 3-6.3 7.9-8.9 12.5-6.5m-188.8 25.6c-3.2 1.6-9.3 9.5-9.3 12.1 0 1-1 .8-3.7-.7-11.3-6-24 1.9-21.9 13.7 1.2 6.2 10.8 14.6 24.3 21.2 8 3.9 11.7 5.2 13.4 4.8 1.9-.5 3.7-3.5 8.9-14.4 5.5-11.8 6.5-14.8 6.8-20.4.8-13.8-8-21.5-18.5-16.3m10.3 7.9c2.7 4.2 1.5 11.6-4.1 23.5-2.6 5.8-5.1 10.9-5.6 11.4-1.2 1.4-18.9-8.5-24.1-13.5-5.1-4.8-5.8-7.1-3.2-10.7 2.8-4 10.2-2.6 15.8 3 2 2.1 5.5 2.4 6 .5 2.7-9.8 4-12.9 6.3-14.7 3.5-2.7 6.9-2.6 8.9.5m743.6 424.2c-.5 1.6-3.9 11.1-7.5 21.3s-9.5 26.8-13.2 36.9c-3.6 10.1-6.4 19-6.1 19.7 1 2.6 3.5 1.4 6-2.9 1.4-2.3 6-12.3 10.2-22.2s8-18.4 8.4-18.9c1.2-1.2 10.3 18.2 13.4 28.4 7.7 25.6 15.9 75.9 21.1 128.5 6.4 65.6 9.9 93.6 15 121.5 1.1 5.8 1.4 11 1 16.2-1 12.8-1 12.7-10 16-10.3 3.8-11.8 5.3-4.5 4.4 3-.3 7.1-.9 9.1-1.2l3.6-.6 2.1 6.6c2.5 7.6 2.8 16.2.7 22.1-1 2.7-1.1 4.3-.4 5.2.6.7 1.3 3.9 1.6 7.3l.6 6h3.6c5.9 0 6.5-.9 5.9-8.4l-.6-6.7 3.5-1.4c5-2.1 9.6-5.6 8.6-6.6-.5-.5-3.2-.2-6.1.5l-5.2 1.4v-8.6c-.1-5.9-.7-10.5-2-14.2-1-3-1.6-5.6-1.2-5.8 3.3-1.2 12.7-7.1 13-8.2.5-1.3-.2-1.2-9.8.7l-2.6.5.4-10.4c.3-7.4-.2-13.5-1.7-21.8-3.7-20.8-8.5-61.4-14.1-119-4.7-48.1-14.3-104.5-21.6-127.2-4-12.4-10.7-26.4-15.9-32.9l-3.3-4.2 2-4.6c3.2-7.4 3.5-13.3.9-17-2.7-3.8-3.6-3.9-4.9-.4m-39.6 166.4c-.6 1.4-2.1 10.1-3.5 19.9-.5 3.5-.2 16.2 1 34.5 1 15.9 1.9 38.2 1.9 49.5 0 24.8 1.2 39.6 4.2 55.3 2 10.5 2.1 12.5 1 18.7-.7 3.9-1.2 10.1-1.2 13.9v6.8l-3.7.7c-2.1.3-5.4.6-7.3.6-3.6 0-6.9 1.4-5.9 2.5.3.3 4.5.9 9.4 1.3l8.8.7 1.4 4.5c.9 2.5 1.8 9.7 2.2 16l.6 11.5 4-.3c2.2-.1 4.6-.5 5.3-.7 2-.7 1.6-17.7-.7-25.7-1.8-6.6-1.8-6.8 0-7.3 2.6-.9 2.4-3.3-.3-3.7-2.2-.3-2.3-.7-2.2-8.8 0-4.7.4-11.4.8-15 .6-5.1.3-8.8-1.4-16.9-2.9-14.5-3.9-27.1-4-51.4 0-11.4-.7-30-1.5-41.4-1.6-21.2-6.8-65-7.9-66-.3-.3-.8 0-1 .8"/></svg>
