<svg xmlns="http://www.w3.org/2000/svg" viewBox="0 0 1254 1254"><path d="M730.8 152c-18.3 3.3-33.9 11.9-41.9 22.9l-3.9 5.5-5.3-.3c-2.8-.1-8.7.7-13 1.8-32.3 8.4-56.1 40-66.1 87.8-4.9 23.9-5.2 31.3-3 70.4.9 14.1-.5 21.4-7.1 38-7.2 18-8.9 25-8.9 37.9 0 16.9 3 24.7 16.2 42.3 4.4 5.8 9 13.1 10.1 16.2 3 8 2.8 18.8-.5 28-4.8 13.4-7.2 21.3-7.9 26.3-.8 6.2.9 15.2 4 20.9l2.2 4.1-8.8 1.7c-4.9 1-9.1 2.1-9.4 2.5-.2.4.1 1.5.8 2.4 1.2 1.6 2.4 1.5 17.2-1.7 8.8-1.9 16.2-3.3 16.4-3.1.2.1-.4 1-1.2 1.9-3 3-13.1 20.1-18.3 31-6.4 13.5-13.3 31.1-16.9 42.7-1.8 6.1-3.1 8.8-4.2 8.8-1.3 0-1.4-1.1-.9-6.8.3-3.7.8-11.9 1.2-18.3.6-12.5-.1-14.9-3.6-11.3-1.6 1.6-2 4.8-2.9 19.9-1.2 21.1-1.2 36.3 0 37.1 2.1 1.3.8 3.4-2.1 3.4-1.6 0-3.7.9-4.8 2-1.9 2-12.8 26.7-15.3 34.5-.7 2.2-1.4 3.4-1.7 2.6s.1-19.8.8-42.4c1.3-43.3 1.1-45.3-3-41.1-1.9 1.8-2 4.3-3.2 45.5-.6 23.9-.9 44.3-.5 45.3.6 1.6 1 1.6 2.3.5 1.5-1.2 1.6-1 1 1.9-.7 3-.6 3.2 2 3.2 7.3 0 15.3 7 16.9 14.8.4 1.8 1.8 4.4 3.1 5.7s2.4 2.8 2.4 3.4c0 .5 1.5 1.5 3.4 2.1 4.3 1.4 11.5 9 12.2 13 .4 1.7 1.5 3.2 2.6 3.6 2.8.9 8.7 6.2 10.4 9.5.7 1.5 1.4 4 1.4 5.4s.7 2.8 1.5 3.2c3.1 1.1 5.7 8.1 5.3 14.3-.2 4.4.1 6.3 1.4 7.6 2.2 2.5 4 7.4 3.4 9.1-.9 2.2.2 1.5 4.4-3.1 2.2-2.4 6.6-5.7 9.7-7.4 4-2.2 6.6-4.5 8.3-7.3 4.2-6.9 14.6-13.4 26.5-16.5 6.9-1.9 22.9-1.8 29.6.2 6.6 1.9 13.3 5.6 17.9 9.9 1.9 1.8 5.3 3.8 7.5 4.5 9.8 3 19.8 11.9 23.1 20.5 1.2 3.2 3 5.5 6.5 8 8.5 6.1 13.3 17.8 11.8 28.9-.5 4.1-.3 5.3 1 6 .9.5 3.7 3 6.2 5.5 6.5 6.4 7.1 9.3 5.8 27.1-1.2 17.5-2.1 21-6.1 25.6-3.8 4.4-7.6 6.4-12.7 6.7-2.8.2-4.9 1.2-7.9 3.9-2.2 2-5 4.1-6.1 4.7-3.6 2-11.4 3-16.1 2.1-4-.7-4.8-.5-8.1 2.1-4.3 3.4-10.3 6.2-13.9 6.4-1.4.1-4.1.3-6 .4l-3.5.2 6 3.1c3.3 1.7 9.6 5.9 13.9 9.4 13 10.4 20.5 11.8 60.6 11.8 28.5-.1 45.5-1.4 71-5.5 22.6-3.6 23.1-3.6 30.6.1 27.4 13.5 40.2 52 27.3 82.1-2.9 6.7-5.6 7.4-27.4 7.4-29.3 0-53.1-5-125-26-17.6-5.1-36.3-10.6-41.5-12.1-9.5-2.7-9.5-2.7-36-2.3-14.6.2-34.4.4-44.1.4-19.9 0-19.4.1-30.4-9.9-6.4-5.8-4.7-5.9 3.5-.1 6.5 4.6 9 5.5 8.9 3.2-.1-2.6-11-10-26.3-17.8-16.7-8.5-24.2-13.8-35.5-25.3l-6.5-6.5 2.8-1.1c1.5-.5 3-1 3.4-1s2.3-1.1 4.3-2.4l3.5-2.4 7.5 4.5c4.1 2.4 8.3 5.3 9.4 6.2 1.1 1 3.7 2.4 5.9 3.1 2.1.7 5.4 2.3 7.4 3.6 7 4.8 18.4 6.5 38.1 5.8 12.8-.5 15.4-.4 20.9 1.4 7.3 2.3 8.9 1.3 3.5-2.2-6.4-4.2-11.3-4.9-28.3-4.1-21.1.9-31.2-1.5-34.2-8.1-1-2-.8-2.8.6-4.2 1.7-1.6 1.8-1.6 1.2.8l-.7 2.5 1.4-2.4c.8-1.4 2.3-2.8 3.3-3.2 2.5-1 8.8-1.1 10-.2.5.5.1 0-.9-.9-1.1-1-2.6-1.8-3.5-1.8-1 0-1.3-.3-.6-1 .6-.6 3.2-.2 7.3 1 11.3 3.6 24.4 1.8 32.2-4.3l3.1-2.4 4.2 2.1c3.2 1.6 6 2 13.1 2 7.8 0 9.8-.3 14.6-2.7 3.1-1.5 6.4-3.6 7.3-4.6 1.7-1.8 2-1.8 5.4-.3 4.9 2.1 17.4 2 22.5-.2 2-.9 5.5-3.2 7.6-5.1 3.4-3.1 4.2-3.4 6.6-2.5 7.3 2.8 18.1 0 24-6 3.2-3.3 4.6-4 7.8-4 4.9 0 9-2.1 12-6.2 3.4-4.7 3.5-4.9 4.7-23.1 1.2-15.9 1.1-16.5-.9-20.5-1.2-2.3-3.8-5.3-5.8-6.7-4.4-2.9-4.9-3-5.6-1.1-.4.9 1.2 3.3 3.9 5.9 3.2 3.2 4.4 5.2 4.4 7.3 0 6.8-7.1 13.1-21.4 19.1-72.3 30.5-292.6 36.4-404.9 10.8-37.6-8.6-59-20.3-56.3-30.9 1.4-5.7 13.5-13.5 26.9-17.2 4.9-1.4 5.7-2 5.7-4.1 0-2-.3-2.3-2.7-1.7-6.4 1.5-18.5 6.7-24.2 10.4-9.6 6.2-10.1 7.5-10.1 27 0 18.2 1.1 22.6 6.5 26.8 3.5 2.8 10 4.5 13.8 3.8 2.6-.5 3.5 0 6.8 3.8 2.1 2.4 5.8 5.2 8.1 6.1 5 2.1 15.4 2.3 18.7.5 2.1-1.1 2.7-.8 6 2.3 4.5 4.4 8.1 6.2 15.3 7.6 6 1.3 14.6.4 18.9-2 1.8-.9 2.5-.7 4.8 1.5 7.4 7.1 22.9 9.6 34.7 5.6l6.6-2.2 2.2 2.2c3.1 2.9 11.6 5.9 18.4 6.6 6.7.7 16.4-1 20.9-3.7l3.1-1.9 5 3c2.7 1.8 7.7 3.6 11.1 4.3 7 1.3 6.7.4 5 14.2-2.2 18.3-8.6 33.2-18.4 43-6.2 6.2-10.9 8.8-26.3 14.6-9.4 3.5-13.4 6.5-16.2 12-2.6 5-2.7 14.9-.3 19.1 6.7 11.2 40.7 20.8 80.7 22.7 50.3 2.4 96.8-6.2 110.6-20.4 5.7-5.9 5.2-17.8-1.2-25.1-3.5-4-7.7-6.4-18.1-10-20.6-7.4-30.1-17.1-36.5-37.4-2.4-7.8-3.2-11-2.5-11 .2 0 2.4 1.5 4.9 3.4s8.6 5.5 13.5 8.1c7.8 4 10.8 6.4 20.4 16.1 15 15 13.1 15.3-3 .4-5.5-4.9-24.3-16-27.4-16-1.7 0 2.3 9.6 6.5 15.7 5 7.3 11.8 11.9 23.7 16.3 12 4.3 15.3 6 19.7 9.7 7.3 6.1 10.1 19.1 6.1 27.8-2.4 5.4-6.9 9-16.6 13.6-9.6 4.5-18.7 7-36 10.2-12.8 2.4-12.9 2.4-9 3.5 19.4 5.3 72.8 13.3 108.5 16.4 20.6 1.7 96.9 1.7 118.5 0 49.3-4 91.3-9.8 105-14.6 4.2-1.5 4.8-3.2 3.2-8.1-.7-2-.1-2.2 11.3-3.3 12.3-1.2 25.7-4.8 25.3-6.8-.1-.7 2.2-1.3 6-1.6 3.5-.3 8.1-1.5 10.5-2.7 5.1-2.6 11.9-8.5 12.7-11 .4-1.3 1.3-1.7 2.9-1.4 1.3.3 4.5-.6 7.3-2 15.8-8.1 27.2-23.9 30.8-43.1.9-4.4 2.2-10.6 3-13.6.7-3 1.9-8.2 2.5-11.5.7-3.3 2.3-8.3 3.7-11 4.9-9.7 5.5-12.6 6.3-29 .5-10.1 2.3-25.5 4.9-42 8.1-52.1 12.3-99.5 12.4-139.5.1-29-1-41.3-5.5-60.5-2.1-9-6.1-20.8-9.3-27.7l-1.8-3.6 4.7-7.1c7-10.5 8.9-16.7 8.4-27.3-.6-12.2-4.6-20.2-16.4-32.2-11.2-11.5-13.9-17-13.9-28.1.1-6.2.8-10.2 3.2-17.5 4.7-14.3 5.7-19.6 5.6-30-.1-11.2-3.1-21.6-9.3-32-5.7-9.6-11.6-15.8-24.2-25.2-18.8-14.2-24.4-21.7-26.9-36.1-1-5.9-.8-9.3 1.1-24.3 1.9-15.1 2-18.5 1-26-2.5-19.3-9.3-31.1-27.3-47.6-14.6-13.5-16.6-17.5-23.8-46.5-10.1-41.2-22.1-64.7-44.8-87.4-21.1-21-44.9-34-74.1-40.4-8.6-1.9-41.6-2.9-49.2-1.5m-7.8 18.9c0 .5-2.1 1.4-4.7 2.1-12.8 3.2-27.1 14.6-32.5 25.9-4.5 9.4-5.1 19.6-1.6 27.3 1.4 3 4 7.1 5.9 9.3 4.7 5.3 16.2 10.2 11.9 5-.7-.8-.8-1.5-.2-1.5.5 0 1.5.7 2.2 1.5 2.1 2.5 3.5 1.7 4.8-2.9 2.5-9.5 12.8-18.3 24.1-20.7 18.1-3.7 38.9 4.4 54.6 21.3 14 15.1 21.8 32 29.1 63.1 2.5 10.6 5.7 22.6 7 26.7 6.9 20.8 21.4 36.2 39.1 41.5 7 2.1 19.8 1.9 27.4-.5 6.9-2.1 8.7-2 4.2.3-8.7 4.5-24.3 6.1-33.4 3.4-17.8-5.4-31.6-19.5-39.4-40.2-1.5-3.9-4.6-15.1-7-25-5.9-24.3-8.8-33.3-14.6-44.5-11.7-22.9-27.9-37.4-47.5-42.4-11.2-2.9-24.3-1.2-31.2 4-4.5 3.5-9.2 10.1-9.2 13.1s.5 2.9 8.3-.7c3.5-1.7 8.8-3.3 11.8-3.5l5.4-.5-5 1.6c-9.7 3.1-10 5.1-.7 4.6 14.2-.8 26 3.8 36.6 14.5 7.5 7.5 11.5 13.6 18.5 28.5 3.7 7.8 14.1 36.1 14.1 38.3 0 .2-2.3-.5-5-1.6-9.8-3.7-33.5-1.7-41.5 3.5-2.9 1.9-3.4 6.3-.9 7.3.9.3 6.9-.5 13.3-1.8 12.9-2.7 27.4-3.2 33.1-1.1 3.2 1.1 3.8 1.9 7 10.9 6.3 17.3 15 29.7 26 36.8l6.2 4-.2 7.5c-.3 9.6-.2 10 1.1 10 1.4 0 3.5-5.5 4.3-11.3.6-4 1-4.7 2.4-4.2.9.4 4.3 1.2 7.6 1.8l5.9 1.1-.6 8.2c-.7 12.5-6.8 23.9-14.4 27-5.5 2.3-5.6 2.2-4.8-7 .5-6 .3-8.6-.5-9.1-2.1-1.3-2.9.8-5.4 14.5-6.3 34.1-17.1 52-46.3 76.7-24.1 20.5-31.4 23.8-51.8 23.8-12 0-13.4-.2-18.7-2.7-17.4-8.1-49.9-35.7-60.5-51.3-12.2-18-15.9-32.4-21.3-82-4.7-43.7-4.8-47.5-1.6-56.7 1.4-4.2 3.3-12 4.1-17.5 3.5-22.3 4.6-26.8 8.6-35 4.9-9.9 11.9-17.5 19.4-20.9 5.4-2.5 7.1-4.4 3.8-4.4-4.4 0 .7-1.5 8.9-2.6 5-.7 9.6-1.8 10.1-2.3.8-.8.1-2.1-2.5-4.6-7.9-7.7-11-22.1-7.3-34 4.8-15 21.5-29 39-32.5 2.2-.4 4.1-.8 4.3-.9.1-.1.2.3.2.8m40.7 20.6C780 197 792 204.8 804.3 218c16.8 18.1 24.2 36 29.6 71.8 2.8 17.8 4.5 24.1 9.2 34 7.6 15.9 21 25.9 41.1 30.9 15.4 3.7 24.5 9.2 29.2 17.5 1.6 2.7 1 2.3-3.5-2.2-6.6-6.8-12.4-9.6-24.8-12.2-18.2-3.7-26.3-7.8-35.5-18-10.5-11.5-15.2-23.8-19.2-49.3-3-18.9-5.5-29.3-9.5-39.5-15-37.4-54.5-64.2-88.6-60-11.2 1.4-18.2 4.2-24.3 9.6-5.8 5.3-6.8 4.5-1.2-1 12.7-12.8 33.9-15.8 56.9-8.1M660 233.9c0 .4-1.8 1.1-3.9 1.4-10.7 1.4-24.6 13.2-30.6 25.8-3.6 7.8-6.5 17.5-6.5 22.1 0 1.5-.4 2.8-1 2.8-2.7 0 .8-17.8 5.5-27.8 5.7-12.2 16.3-21.5 27.2-24.1 5.1-1.2 9.3-1.3 9.3-.2m195.1 44c5.9 21.4 15.1 31.8 42.4 47.9 14.4 8.5 22.3 14.7 28.8 22.7 11.7 14.2 16.1 33.4 12.6 54.5-1.7 10.3-1.5 23.7.5 30.5 3.6 12.1 8.7 18.4 25.1 30.6 15.4 11.4 22.9 19.2 28.4 29.8 5.9 11.3 7.4 18.5 6.8 31.1-.5 9.2-1.1 12.2-5.2 23.9-4.4 12.7-4.7 14-4.3 21.5.5 10.1 3.7 16.6 11.8 24.1 11 10.2 15 14.8 17.6 20.3 5 10.6 4.2 23.4-2.3 35.4-3.7 6.7-4.5 6-1.6-1.3 2.1-5.3 2.4-7.4 2.1-15.3-.4-12.9-3.7-19.4-16.4-32.2-10.5-10.7-12.6-14-14.4-22.8-1.5-7.5-.9-11.8 3.5-25.3 2.9-8.5 3.8-13 4.2-21 .7-13.2-.7-20.4-6.3-32.1-5.4-11.2-13.7-20.4-29-32.2-11.8-9.1-16.1-14.1-20.3-23.1-4.7-10.1-5.6-18.1-3.5-34.6 3.3-27.6 0-43.2-12.8-59.8-4.3-5.5-15.8-15.2-22.8-19.2-21.1-12.2-28.7-18-35.6-27.4-6.1-8.3-12.4-25.8-13.8-38.5l-.5-4.9 1.4 5c.8 2.7 2.4 8.3 3.6 12.4m-225.7 90.3c.3.7.7 3.2.9 5.6.5 3.8.3 4.2-1.3 3.7-2.5-.8-4 2.2-4 7.7 0 4.9 2.5 10.9 6.2 15.3 1.9 2.2 2.7 4.7 3.2 9.5.4 3.6 1 7.4 1.3 8.5 1 3.7-6.3-4.3-9.5-10.4-8.6-16.3-10.4-35-3.9-39.6 2.6-1.8 6.6-2 7.1-.3m-31.7 16.5c-3.7 11.4-4.7 17.3-4.7 28.1 0 16.8 4.7 28.7 16.5 41.9 7.3 8.3 10.5 13.5 13 21.2s1.7 20.8-2.1 33.1c-2.3 7.7-2.9 11.4-2.9 19.5 0 9.1.3 10.6 2.8 15.4 3.3 6.4 3 7.7-.4 2.4-4-6.2-5.1-9.4-5.6-16.9-.5-6 0-8.9 3-20 4.6-16.4 5.2-21.6 3.7-29-1.7-8.1-4.7-13.7-12-21.9-17-19.4-22.3-34.9-18.6-54.7 1.6-8.3 8.4-28.3 9.3-27.4.3.3-.6 4-2 8.3m34.2 4c.6 4.8.9 8.8.7 9.1-.3.2-1.4-1.4-2.5-3.7-2-3.8-2.9-12-1.4-13.4 1.5-1.6 2.1-.2 3.2 8m255.5 1.4c4.4 5.1 7.4 12 9.2 20.9 2.1 10.3 1.5 17.5-3.1 37-4.2 18-5 24.9-3.6 32.2 2.6 14 10.7 24 30.8 37.7 28.5 19.4 37.2 37 31.1 63.1-.6 2.5-4 10.8-7.7 18.5l-6.6 14v9c0 11 2 15.5 11 25.4 15.7 17.1 19.7 26.7 17.5 40.9-1.4 8.2-3.4 12-2.5 4.7.9-7-1.7-18.2-6-26.3-1.9-3.7-7-10.5-11.2-15.2-11.9-13.3-15.7-23.6-13.3-35.7.6-3.2 3.8-11 7-17.3 7.5-14.9 9.4-21.3 9.3-32 0-18.7-7.9-29.9-33-46.8-15.5-10.6-22.2-17.2-27-27-3.8-7.6-3.8-7.6-3.7-20.2 0-10.9.4-14.1 3.3-25 3.9-14.6 5.1-29.3 3.1-39.2-1.9-10.1-8.7-21.7-14.4-24.7-1.4-.8-2.3-1.8-2-2.3.7-1.1 8.5 4.3 11.8 8.3m-29.3 48.5c1.6 5.6 1.9 10.3 1.9 26.2 0 22.5 1.4 31 6.7 41.8 4.2 8.5 11.5 17.2 23.6 28 23.9 21.3 31.4 39.9 25.6 62.9-.6 2.2-3.5 9.2-6.4 15.5-6 12.9-7.4 17.9-7.5 26.1 0 11.6 5.2 19.6 20.1 30.9 14.8 11.3 20.3 20.2 20.3 33.1 0 6.3-.5 8.6-3.2 14.2-1.7 3.7-3.5 6.7-4 6.7s0-1.9 1.2-4.3c1.7-3.3 2.1-6 2.1-13.2 0-14.7-4.1-21.4-20.8-34.3-15.9-12.3-20-19.2-20-33.7 0-8.5.9-11.2 10.7-33 6.6-14.9 6.6-28.4 0-42.4-3.2-6.8-5.3-9.3-20.8-24.6-22.5-22.1-26.6-28.3-30.1-45.1-1.4-6.6-1.6-11.4-1-29.9.7-21 .4-24.8-2.2-32.3-.5-1.3-.3-1.4.7-.5.7.6 2.1 4.2 3.1 7.9m-51.6 66.7c0 23.9 1.1 30.9 7 42.9l3.2 6.7-2.1 5.3c-4.9 11.9-11.3 19.9-29.1 36.2-22.1 20.2-56.9 61-64.5 75.5-1 1.9-1 2.5.1 3.2.8.5 1.7.9 2.1.9s3.3-3.8 6.5-8.5c7.6-11 23.5-30.4 24.8-30.2.6.1 4.7-1.8 9.3-4.1 4.6-2.4 8.5-4.2 8.8-4 .5.6-4.9 14.4-8.2 20.9-1.4 2.9-4.8 8.7-7.4 12.9-2.6 4.1-5.7 9.4-6.9 11.8l-2.2 4.2 2.8 1.1c2.2.8 3 .7 3.6-.3.4-.7 4.2-7.1 8.4-14.2 7.9-13.4 13.5-25.9 15.6-34.7 1.1-4.7 1.6-5.3 5.9-7.4l4.6-2.2 5.8 5.8 5.8 5.8-2.4 6.8c-1.2 3.8-5.6 14.4-9.5 23.8-9.5 22.3-9.2 21.3-6 22.1 1.4.3 2.8.5 3 .3.8-.8 11.8-26.7 15.7-36.9 2.3-5.8 4.2-10.6 4.3-10.8.2-.2 1.8.7 3.7 1.9 2.5 1.6 4.4 4.3 6.7 9.4 1.8 4 4.2 8.7 5.5 10.6 2.3 3.3 2.3 3.3.4 7.8-6.4 16.2-8.6 22.7-7.7 23.6s23.8 6.4 27.1 6.5c3 0 3.1-3.7.3-8.5-3.9-6.5-2.3-5.5 2.6 1.6 8.8 12.9 10.8 27.4 5.5 38.2-2.9 6.1-8.8 11.7-12.1 11.7-1.7 0-1.5-.3 1-1.9 7.3-4.4 10.9-12.3 10.9-23.6 0-13.2 1.6-12.3-32.2-18.9-63.4-12.4-121.1-20.8-188.2-27.6-19.7-2-25-2.8-20.4-2.9 1.2-.1 2.7-.8 3.5-1.7 1.9-2.3 4.7-16.6 3.8-19.2-.6-1.6.4-6.1 3.6-16 8.4-25.9 10.4-30.1 16.6-36 3.1-2.8 5.8-5.2 6.1-5.2s-.1 2.3-.8 5.1c-2.8 10.9-11.8 69.4-10.9 70.9.3.6 1.7 1 3 1 2.8 0 2.3 2 6-24 4.8-32.5 8.2-52 9.5-53.3.8-.9 5 9 5 11.7 0 2.6 6.2 13.6 9.1 16l2.9 2.5-2.5 19.8c-1.5 10.9-2.9 22.2-3.2 25l-.6 5.3h6l1.6-12.3c.9-6.7 2.2-16.8 2.9-22.5.7-6.1 1.6-10.2 2.3-10.2.6 0 5.2 3.4 10.3 7.5l9.2 7.6-.6 6.2c-.3 3.4-.9 10.6-1.5 16-.6 5.3-.7 10.2-.4 10.7.3.6 1.7 1 2.9 1 2.7 0 3.1-1.5 4.2-17.3.4-5.3 1-9.7 1.3-9.7.4 0 1.5 1.4 2.5 3 1.2 2.2 2.3 2.9 3.5 2.5 1.5-.4 2.3.8 4.4 7.2 1.4 4.3 2.8 9.7 3.2 12 .4 2.4 1.3 4.4 2.2 4.8 3.4 1.2 3.7-1.2 1.4-10.7-4-16.1-9.6-28.4-26-57.3-12.6-22.1-19-39.6-19.1-52.1 0-3.6.4-4.3 4.4-7.1 8.6-6.1 12.8-17.5 13-35.5 0-6 .2-10.8.4-10.8.1 0 4.4 3.2 9.5 7 5.1 3.9 12.2 8.6 15.9 10.4 17.3 8.7 40.9 6.5 59.3-5.6 7.7-5 23.7-18.2 30-24.7 2.1-2.3 3.9-4.1 4-4.1zm30.7-3.5c-.4 10 1.3 18.3 5.9 27.9 2.8 5.8 6.2 10.4 20 26.8 6.1 7.3 9.4 14 10.9 22.4 1.5 8.6.2 15.9-5.7 30.8-4.4 10.9-4.7 12.5-4.7 20.8-.1 7.9.3 9.7 2.7 14.5 3.6 6.9 9.4 13 22.9 23.6 13 10.3 18.8 16.7 23.4 26 8.4 16.9 3.9 39.6-10.2 51.2-5.7 4.7-6.3 3.9-1.2-1.6 8.2-8.8 12.3-20.5 11.6-33.1-.9-14.8-8.4-25.8-27.8-40.6-18.2-13.9-25-23.6-25.8-36.8-.5-8.1.6-12.8 6-26.7 3.6-9.1 4.2-11.8 4.6-20.2.4-9.5.3-10-3.1-17-2.1-4.3-7.3-11.8-12.7-18.3-14.6-17.6-19.7-30.2-18.8-47.1q.6-11.4 2.1-11.4c.1 0 0 3.9-.1 8.8m-158.8 17.9 3.8.6-.6 4.1c-1.2 7.3-7.9 19.6-10.8 19.6-1.6 0 .1-11.1 2-13.3 2.1-2.3.1-4.7-2.6-3.1-6.4 3.9-7 29.7-1.1 48.4 2.6 8.2 11.3 26.6 17.8 37.3 4.8 8.1 13.1 23.5 14.4 27 .4 1-1.7-.7-4.5-3.9-2.9-3.1-11.4-10.3-18.8-15.9-14.7-11.1-16.5-13.3-20.1-25.1-2.5-8.3-6.6-16.2-9.1-17.5-1.4-.7-3.1.3-8.5 4.9-3.7 3.3-7.7 6.9-8.7 8.1-1.1 1.1-2.3 2.1-2.7 2.1-1.2 0 6.5-28.5 11.2-41.2 7-19.3 13.1-28.1 21.1-30.6 7-2.2 10.9-2.6 17.2-1.5m146.5 37.6c.1 9.8-2 19.2-7.4 32.6-6.3 15.8-7 19.2-7 32.7v12.2l-4.8-4.1c-2.7-2.2-6.9-6.4-9.4-9.3s-5.1-5.5-5.8-5.8c-.7-.2-7 2.5-14 6-7.1 3.6-13.2 6.3-13.8 6.1-.9-.3 18.5-20.2 35.4-36.2 5.3-5.1 11.6-12.3 14.4-16.5 5.2-8 10.4-21.2 10.6-27 .2-6.7 1.7.9 1.8 9.3m-2.5 48.9c-.8 7.9.7 15.7 4.6 25.2 3.8 9 10.2 17.7 23 31.1 11.8 12.4 14.9 16.4 18.8 24.1 6.8 13.4 7.3 26.8 1.6 39.5-4.3 9.5-14.5 16.9-23.3 16.9-3.3 0-1.6-1.4 3.6-2.8 5.3-1.6 12.3-8.3 15.9-15.3 3.9-7.6 4.5-19.9 1.5-29.7-2.7-9.1-7.6-16.1-21.4-31-18.6-20.1-25.7-34.7-25.7-52.7 0-7.5.6-11.5 1.6-11.5.2 0 .1 2.8-.2 6.2m159.3 22.4c38.7 27.5 51.7 74.3 45.2 163.4-2.9 40-6.7 72.9-12.5 107.5-1.5 9.2-2.7 20.8-3 30-.6 16.7-1.4 21.4-5.5 29.6-1.5 3-3.1 7.2-3.4 9.2-1 4.9-2.1 4.7-2.7-.6-.7-6.2-5.4-17.2-10.8-25.5l-4.8-7.2 2.6-4.7c2.3-4.2 2.6-6 3.2-19.7.5-9 2-22.3 3.8-33.1 5.2-30.6 10.1-72.5 12.3-105.7 1.6-24.8.7-58-2-73.1-2.4-13.7-7.8-30.6-12.4-39.1-3.6-6.7-5-7.7-6.7-4.6-1 1.8-.7 3.2 1.6 7.8 4.5 9.4 9.4 25 11.6 37.2 1.9 10 2.2 15.3 2.2 40.5 0 39-4.1 83.3-12.9 137.3-2.4 14.7-3.5 24.7-3.5 32 0 8.4-.5 11.6-2 14.9-1 2.4-2.1 4.3-2.4 4.3-.4 0-3.6-2.5-7.3-5.5-3.8-3-9.6-6.9-12.9-8.7l-6.2-3.2-.6-5.6c-.8-6.5-.6-7.1 3.9-16.5 2.8-5.8 3.6-8.9 4.5-18 .6-6.1 3.1-27.4 5.5-47.5 5.2-42.8 7.5-69.3 7.5-86.8 0-11.7-1.4-25.9-2.5-27.1-.3-.3-1.3.3-2.2 1.2-1.4 1.4-1.7 4.8-1.9 25.4-.2 25.7-1.2 38-7.5 88.8-2.2 18.1-4.7 38.4-5.4 45-1.2 10.3-1.8 12.9-4.7 18-2.9 5.2-3.3 6.9-3.3 13.2 0 6.2-.2 7.2-1.6 6.8-5.2-1.7-16.2-3.5-21.2-3.5-5.2 0-5.8-.2-6.7-2.6-2.4-6.1-.7-11.6 5.4-17.2 3.9-3.6 3.8-3.3 5.7-27.7.5-7.7 2.1-24.7 3.5-37.9 3-29.9 3-27.8-.3-27.4-2.4.3-2.9.9-3.5 4.8-.8 4.9-5 47.5-6.8 69l-1.2 13.4-4.3 4.8c-5 5.6-7.3 12.6-5.5 17.2.6 1.6.9 3 .8 3.1-.2.1-3.4.7-7.1 1.4-7.5 1.3-17.7 4.8-17.7 6 0 2.7 2.9 2.8 10.9.5 4.6-1.3 9.3-2.4 10.5-2.4 2 .1 1.9.2-.6 2.1-1.5 1.1-3.7 4-5 6.5-1.9 3.9-2.5 4.4-4.7 3.9-1.5-.3-6.1-.6-10.3-.7-4.3-.1-7.8-.5-7.8-.8s1.5-1.5 3.4-2.7c3.4-2.2 3.4-2.2 2-6-2.9-8.2-.7-15.1 7.3-22.3l4.9-4.6.2-7.9c.3-12.1 2.1-43.5 3.8-66.3 1.2-15.8 1.2-20.7.3-21.8-1.4-1.7-3.9-.1-3.9 2.4 0 3.8-20.2 66.9-30.4 94.8-1.4 3.9-2.6 8-2.6 9-.1 3.8-1.7-1-2.4-7.1-.4-3.3-1.4-11.9-2.2-19-.8-7.2-1.8-26.1-2.1-42-.5-29.1.5-46 3.8-68l1.2-8 1.8 5.8c4.3 14.3 17.2 25.4 28.5 24.5l3.9-.3-5.8-3.3c-9.6-5.4-14.2-14.4-13.5-26.5.3-5.7 1.3-9.4 4.8-17.5 5.1-11.8 6.6-12.1 2.3-.4-2.4 6.5-2.8 9.2-2.8 17.7s.3 10.6 2.3 14.3c3 5.6 9.4 12 12.9 12.8 1.6.4 4.2 1.9 5.8 3.5 8.4 7.9 23.2 9.8 34 4.4 4.1-2.1 6.4-4 7.7-6.5 2-3.9 1.1-5.8-2-3.9-3 1.9-6.9-.2-8.9-4.8-2.2-5.4-1.2-13 3-21.7 3.4-7 17-27.4 23.4-35.1 4.7-5.5 10.9-18.2 12.3-25.2 1.8-8.6.8-21.4-2.5-29.8-5.3-13.9-6.2-19.4-5.7-35.3l.2-7.3 5.8 3.7c3.1 2 8.5 5.6 11.9 8m-382.6 15.8c6.4.7 12.1 1.6 12.8 2 1.2.8 1 2.4-1.5 11.4l-1.5 5.3-11.2-.5c-12.1-.6-16.1-1.4-14.9-3.2.7-1.1 16-.3 21.9 1.1 2.5.6 3 .1 3.9-4.6 1.2-6.3 1.1-7.4-1.1-7.2-3.7.4-21-1.9-22.3-3-2.4-1.9-4.3 1.5-4.5 8.2-.1 3.5-.6 5.9-1.2 5.7-1.3-.4-1-10.3.4-13.9 1.2-3.2 2-3.2 19.2-1.3M580 676.2c0 .7-.7 2.1-1.5 3.1-3.8 5.2-2.6 14.8 2.6 19.1 4.5 3.8 9 4.3 14.6 1.5 6.7-3.3 8.6-7.3 7.9-16.2-.7-7.2.4-8.6 2.4-3.6 3.2 7.7.3 17.3-6.6 22.2-9.6 6.7-23.9 1.2-26-10-.8-4.1.7-11.1 3.2-14.8 1.7-2.7 3.4-3.3 3.4-1.3m14.8 1.8c5.7 3.5 6.9 10.8 2.7 15.8-6.1 7.2-17.5 3.4-17.5-5.8 0-3.4 2.9-7.9 6.3-10 4-2.5 4.4-2.5 8.5 0m332.6 71.7c-2.9 7.1-3 13.6-.4 20.6 2 5.4 4.8 8.7 8.5 10.2 1.8.7 1.8.9.2 1.2-3.4.8-8.2-1.7-11.2-6-2.7-3.7-3-5-3-11.2.1-5.7.6-8 2.9-12.5 2.6-5.1 4.5-8 5.1-8 .2 0-.8 2.6-2.1 5.7m-33.8 86.5c-.4 6.8-1.1 20.3-1.6 30l-.9 17.7-5 4.6c-6.5 6.1-8.5 11.3-7.9 20 .5 6 .4 6.5-1.9 8-1.3.9-2.9 2.7-3.5 4.1-.7 1.5-2 2.4-3.3 2.4-1.9 0-2.3-.8-3.3-6.8-1.1-6.5-1-7 2.3-16.2 5.9-16.3 24.5-72.7 24.5-74.4 0-.9.3-1.6.7-1.6.3 0 .3 5.5-.1 12.2m41.9 75.3c1.7.4 5.1 1.4 7.8 2.2l4.8 1.5-4 2.8c-4.1 3-6.7 8.5-5.7 11.8.4 1.2-.3 2.7-2.2 4.5l-2.9 2.8-5.9-3.6c-3.2-1.9-9.2-4.8-13.2-6.3-7.2-2.6-7.3-2.8-6.8-5.7.3-1.7 1.8-3.9 3.2-5s3.8-3.1 5.2-4.5c2.3-2.4 2.9-2.5 9.6-1.9 3.9.3 8.5 1 10.1 1.4m35.1 17.8 6.4 5.9-2.8 3.5c-2.9 4-3.2 6.6-1.7 19.6l.8 6.8-4.8 4.5-4.8 4.6-3.1-5.8c-4.7-8.8-8.9-14.5-15.5-21.1l-5.8-5.9 2.3-2.7c1.3-1.5 2.6-4.4 2.9-6.5 1.2-7.5 1.6-8.3 5-10.4 1.9-1.1 3.5-2.6 3.5-3.3 0-2.2 10.3 4.2 17.6 10.8m-77.1-2.3c3.9.6 10.6 2.2 15 3.6 8 2.6 19.5 8.3 19.5 9.5 0 1.5-8.8 4.7-14.2 5.3-7.6.8-15.5 4-19.5 7.9-3.9 3.7-4.1 5-.9 6.5 2 .9 2.7.7 4.6-1.3 3-3.2 10.3-6.2 18.5-7.5 7.5-1.2 12.9-3.2 15.8-5.8 1.8-1.6 2.2-1.4 9.6 6.4 6.7 7.1 12.8 15.7 14.6 20.4.3 1-1.1 2.6-4.2 4.7-3.9 2.6-7 3.6-16.7 5.3-15.8 2.8-24 5.8-24.4 8.8-.5 3.3 2.2 3.8 9.2 1.4 3.3-1.2 10.6-2.9 16.1-3.7 10-1.6 18.5-4.5 20.6-7.1 1.7-2 2.5-1.7 3.8 1.3 5.9 14.6 5.1 38-2 53.3-4.3 9.4-9.4 14.1-16.7 15.7-10.5 2.2-25.2 2.7-30.1.9-5.8-2.1-8.3-2.1-7.9.1.4 2.5 6.7 5.3 13.2 6 3.1.3 5.4.9 5.1 1.3-.8 1.3-15.2 3.3-24.5 3.3-10.7 0-19.3-2.4-26.5-7.3-8.4-5.8-8.1-6 5.3-6 6.6 0 12.7-.3 13.6-.6 2.9-1.1 1.7 1-1.9 3.5-4.9 3.3-3.1 5 2.9 2.7 6.6-2.5 12.8-9.9 16.8-19.9 3.2-8 3.3-8.6 3.3-23.2 0-13.6-.3-15.8-2.7-23.5-3.4-10.7-8.6-19.2-16.6-27.4-6.4-6.5-16.6-12.7-22.9-14.1-1.8-.3-3.5-1.1-3.9-1.6-1.3-2.1 7.2-8.6 15.5-12l8.4-3.4-4.7-.3c-5.6-.4-13.9 1.9-18.6 5-1.8 1.3-4.3 4.1-5.4 6.3-1.9 3.7-2.4 4-5.7 3.7-1.9-.2-4.8.2-6.5.9l-2.9 1.2 3 .7 3 .7-3.5.7c-8.5 1.6-13 2.3-13 1.9 0-1.6 3.5-6.5 6.8-9.5 10-9.1 25.4-14.7 42.7-15.6 1.1-.1 5.2.3 9 .8m98 31c10.2 24.1 5.9 51.8-10.7 69.5-5 5.4-15.2 12.4-16.3 11.3-.3-.2.7-3.5 2-7.4 1.4-3.8 2.5-8.4 2.5-10.3 0-2.6.3-3.2 1.6-2.7 2.6 1 11.3-3.4 14.8-7.6 3-3.5 6.6-12.2 5.5-13.3-.3-.2-2 1.7-3.9 4.3-2.4 3.2-5.5 5.7-10 8l-6.5 3.4-.6-9.9c-.4-5.4-1.4-12.9-2.3-16.6-1.9-8.2-1.9-7.7-.3-7.7 1.5 0 9-7.5 10.6-10.7 1.4-2.8 1.4-11.1-.1-16.6-1-4-.9-4.8 1.2-8.2l2.3-3.7 3.8 5.9c2 3.3 4.9 8.8 6.4 12.3"/><path d="M662.5 325.6c-7.1 1.7-13.3 5.2-17 9.5-4 4.8-1.9 5.9 4.9 2.6 7.9-3.9 18.5-5.1 31.2-3.7 10.7 1.2 13.8.9 14.8-1.5 2.4-6.5-18.2-10.7-33.9-6.9M775.9 346c-5.9 1-9.5 2.9-14.1 7.5-3.6 3.6-5.5 7.1-4.4 8.2.3.3 2.8-1.5 5.7-4.1 5.4-4.9 8.8-6.2 6.9-2.7-2.6 4.9 0 12 5 14.1 4.2 1.7 9.7.3 12.3-3.2 2.3-3 2.7-9.9.7-12.3-.7-.9-1-1.8-.8-2.1.8-.7 7.2 2 10.8 4.6 6.3 4.5 8.3 1 2.3-3.9-6.1-5.1-16.1-7.6-24.4-6.1m-108.1 6.3c-7.5 2.1-15.8 8.7-15.8 12.4 0 2.2 2.8 1.4 6.4-1.7 3.7-3.3 10.6-6.6 10.6-5.1 0 .6-.4 1.3-1 1.6-.5.3-1 2.7-1 5.1 0 3.7.6 5.1 2.9 7.5 6.3 6.3 17.1 2 17.1-6.8 0-2.2-.5-4.4-1.2-5.1-.6-.6-.9-1.4-.6-1.7.2-.3 2.6 1.1 5.1 3 6.8 5.2 9 4.4 4.1-1.5-5.8-6.9-17.5-10.2-26.6-7.7m179.5 32.8c-.7.7-.7 2 0 4 .9 2.2.8 3.7-.2 6.1-2.6 6.5-2.6 7.1-.4 6 3.1-1.7 4.6-6.5 3.9-11.7-.8-4.8-1.7-6-3.3-4.4m-93.7 26.3c.8 3.3-.3 6.4-2.8 7.7-1.4.8-2.3.8-3.1 0-2.1-2.1-7.3-1.2-11.2 1.9-4.7 3.7-8.9 3.9-13.5.5-3.9-2.9-6.6-3.2-9.1-.9-3.6 3.3-8-2.2-6.5-8.2.5-1.9.3-2.5-.6-2.2-.7.3-1.4 2.4-1.6 5-.3 4 .1 4.9 2.5 6.8 2.3 1.8 3.6 2.1 7.5 1.6 3.5-.5 5.6-.2 8 1 4.7 2.4 9.8 2.1 15-1 3.7-2.2 5.3-2.5 8.6-2 3.5.5 4.4.3 6.6-1.9 2.5-2.5 3.2-5.9 2-9.1-1-2.5-2.5-1.8-1.8.8m20.8 29c-.3.8-2.9 2.4-5.7 3.6-4.7 2.1-6.2 2.2-16.3 1.6-8.5-.4-12.1-.2-15.2.8-2.8 1-6.3 1.3-10.9.9-4.8-.4-8.4-.1-12.2 1.1-8.8 2.6-16.9 1.8-19.8-2.1-2.2-2.9-6.3.6-4.9 4.3.5 1.2 1 1.3 1.9.6.9-.8 2.6-.4 6.2 1.3 6.5 3.2 20.3 5.5 32.4 5.5 11.5 0 28.3-4 39.7-9.5 4-1.9 8-3.5 8.8-3.5 2 0 2.1-2.4 0-4.4-1.9-2-3.3-2-4-.2m-21.9 7.6c1.8.8 1.8.9-.6.9-1.4.1-6.5 1-11.4 2-7.4 1.7-10.2 1.8-16.4 1-4.1-.5-8.3-.6-9.3-.3s-1.8.1-1.8-.4c0-1.4 5.8-2.3 14.7-2.2 4.3.1 9.2-.3 10.8-.8 3.7-1.3 11.3-1.4 14-.2m-2.9 17.7c-11.4 4.8-24.7 4.8-33.8.2-4.8-2.4-5.9-1.9-2.2 1 6.1 4.8 18.9 6.4 29.2 3.7 4.7-1.3 14.2-6 14.2-7.1 0-.8-1.1-.4-7.4 2.2m227.8 166.6c-4 3.1-7.1 6.7-8.5 9.9-1.1 2.8-.5 7.8 1 7.8.4 0 2.2-2.3 4-5 1.8-2.8 5-6.4 7.2-8.2 4-3.2 4.1-4.1 1-5.8-1.4-.7-2.6-.4-4.7 1.3M866.2 805.8c-6 24.8-7 31.8-5.5 39.3l.6 3.3 1.4-4.5c1.8-6 10.7-41.4 13.1-52.1 1.9-8.2 1.9-8.8.3-10.3-1-.8-2.2-1.5-2.7-1.5s-3.7 11.6-7.2 25.8m85.3 212.8c-12.4 3.8-20.8 4.8-27.7 3.4-6.4-1.2-9.8-.7-9.8 1.5 0 6.4 22.2 7.2 37.6 1.4 5.6-2.1 10.9-6.3 9.9-7.9-.7-1.2-.2-1.3-10 1.6M461.6 215.2c-2.4 2.4-4.5 4.9-4.7 5.7-.4 1.1-1.5.8-4.7-1.4-5.4-3.5-11.7-4.3-16.6-2-4.6 2.2-6.6 6-6.6 12.3 0 8.8 7.8 18.3 24.3 29.6 3.7 2.5 7.4 4.6 8.1 4.6 1.9 0 14.5-21.9 17.3-30 3-8.6 3-14.7 0-19.1-2-3.1-2.8-3.4-7.6-3.7-5-.3-5.4-.1-9.5 4m13.1 3.4c1.5 2.3 1.5 3.3.5 8.2-1.3 6.4-6.3 17.3-11.6 25.6L460 258l-6.9-5c-17.4-12.6-23.9-25.9-15-30.5 4.4-2.3 8.4-1.1 14.1 4.2 5.3 5 7 4.9 8.2-.8.3-1.7 2.1-4.6 4-6.5 4.2-4.2 7.8-4.5 10.3-.8M292 312.5c-7.5 2.6-13.2 6.4-18.2 12.1-1.8 2.1-4.5 3.6-8.5 4.7-10.8 3-15.9 8.4-18.5 19.6-.8 3.6-2.6 7.2-5.6 11-6.7 8.6-8.1 12-8.6 20.8-.2 4.3-1.4 11.2-2.6 15.3-2 7-2.1 8.3-1 18.3.6 6 1.8 14.3 2.7 18.5 1.2 6.1 1.3 8.8.5 13.2-8.5 43.3-19.8 97.1-25.6 121-7.7 32-15.6 70.6-15.6 76 0 2.2-1 3.3-4.9 5.8-12 7.4-20.1 26-20.1 46.1 0 11 1.7 18.9 6 27 1.6 3.1 3.4 7.6 4 10.1 4.1 15.8 15.2 30.8 28.9 39.1 13.6 8.2 35.2 12.5 57.6 11.4 13.1-.6 33.3-3.1 48-6 4.4-.8 8.1-1.5 8.1-1.5.1 0 .4 1.7.7 3.7 1 6.3 1.3 106.3.3 106.3-.4 0-4.7-1.8-9.5-4.1-17.8-8.3-18.5-13.4-2.7-21.1 8.7-4.2 5.8-4.4-3.4-.2-10.3 4.7-13.4 10.1-9 15.6 1.1 1.4 5.4 4.3 9.7 6.5 17.2 8.8 44.4 15.3 87.3 20.8 36.7 4.7 64.4 6.4 115.5 7.2 95.4 1.4 185.3-8.2 226.7-24.2 9.4-3.7 17.1-8.3 18.8-11.5 1.6-3 1.2-7.5-1-9.5-2.7-2.4-3.6-1.3-1.5 1.9 1.6 2.4 1.6 2.8.1 5.2-6.9 10.4-44.8 20.9-100.1 27.8-66 8.2-168.7 9.1-240 2.1-26.8-2.7-63.5-8.2-65.1-9.7-.2-.2 9.4-2.1 21.4-4.2 48.2-8.4 98.9-17.6 102.4-18.6 2.1-.6 4.3-2.1 5-3.3.6-1.2 1.4-7.5 1.6-13.9l.4-11.8h5.4c4.1 0 5.4-.4 5.4-1.5 0-1.2-1.3-1.5-5.5-1.5-4.8 0-5.5-.2-5.5-2 0-1.6.7-2 3.3-2 4.1 0 6.2-1.3 5.4-3.4-.4-1.1-1.9-1.6-4.7-1.6h-4.1l.3-40.9.3-40.9-2.3-2.5c-1.3-1.3-4.2-3.3-6.5-4.2-2.3-1-8.9-4-14.7-6.6-5.8-2.5-11.3-4.9-12.3-5.3-1.6-.5-1.5-1 1.3-4.5 3.9-4.8 3.6-7.2-1-8.4-1.9-.5-3.6-1-3.8-1.2s1.5-2.7 3.8-5.6c2.2-3 4.9-8.2 6-11.8 2.3-7.3 2.7-17.9.7-18.7-1.8-.7-20.3 5.2-25.2 8-2.2 1.3-4.9 3.3-5.9 4.5l-1.9 2.1-1.8-6.9c-2.1-8.1-4.4-13.1-6.2-13.1-1.5 0-11 9.6-12.6 12.7-.6 1.3-1.7 2.2-2.4 2-.7-.1-3.1 3.6-5.5 8.3-5.1 10.2-7 19.2-5.4 26.6.6 2.7.7 5 .2 5.2s-4.8 2.3-9.6 4.8c-4.7 2.4-9.2 4.4-9.9 4.4s-3.6 1.5-6.4 3.4-6.3 3.7-7.8 4.1c-4.8 1.1-22.6 11-24.5 13.6-1.7 2.3-2.3 4.5-3.5 12l-.5 3.6-11.7 1.1c-6.4.6-16.8 1.7-23.1 2.3-19.3 2-41.8 1.6-53.5-.9-14.2-3-25.2-8.6-33.6-17.2-5.5-5.6-13.9-17.9-13.9-20.3 0-.4 2.7 1.3 6 3.7 12 8.8 24 12.9 38.6 13 8.8.1 9.1.1 10.3 2.7 2 4.5 10 12 15.9 14.7 4.8 2.2 7.5 2.7 16.5 3 7.4.3 10.7.1 10.7-.7 0-.6-1.2-1.1-2.7-1.1-4.3 0-15.4-3-20.8-5.7-5.6-2.7-11-7.4-13-11.4-1.5-2.8-1.1-3.9 1.3-3.9.7 0 5-1.8 9.5-4.1 6-3 8.2-3.7 8.6-2.7.8 2.4 8.5 9 13.1 11.1 8.2 3.9 35.4 3.2 36.7-.9.3-.8-3.9-1.3-14.4-1.6-16.3-.4-19-1.2-28.2-8.9l-3.9-3.3 8.4-8.9c4.6-4.8 8.4-9.3 8.4-9.8 0-.6 1.4.1 3.1 1.5s3.5 2.6 4 2.6c2 0 .6 2.2-5.1 8.3-3.3 3.6-6 6.7-6 7.1 0 1.7 4 .2 8.5-3.2 7.3-5.5 15.8-18.6 19.5-30 1.7-5.1 3-10.1 3-11.2 0-5.4 5.3 2.1 8.5 11.7 1.9 6 3.1 7.2 5.2 5.1 1.3-1.3 1.1-2.4-1.1-8.9-2.9-8.5-2.5-9.2 4.7-10.4 6-1 30-8.5 31.2-9.8.7-.7.7-.8 0-.4-.6.3-7.6 1.5-15.5 2.7-16.4 2.4-19.5 3.2-22.6 6.1l-2.2 2-2.2-3c-1.7-2.5-2.8-3.1-6-3.1h-3.8l-1.2 6.7c-1.2 7.3-5.1 17.4-9.5 24.9l-2.7 4.6-1.9-4.1c-1-2.2-2.2-4.1-2.7-4.1s-.1-2.4.9-5.3c3.1-8.7 1-21-3.8-22.2-1.4-.3-2.7-.4-3-.1-.2.2.3 2.8 1.1 5.7 2.8 9.2 2.2 13.8-2.6 21-5.2 7.8-16 18.8-22.5 22.9-5.6 3.6-6.2 3.7-6 .7.4-5.1-1.5-26.6-2.9-32.1-.8-3.2-1.4-5.9-1.2-6.1.2-.1 2.6-1.4 5.3-2.8 5.6-2.8 15.7-10.1 19.4-14.1 2.4-2.5 2.4-2.6.6-4.6-1.8-1.9-1.9-1.9-8 3.8-21.7 20.3-53 23.7-69.2 7.5l-4.3-4.2v-11.3c0-20.7 3.5-42.3 14.5-90.3 10.2-44.6 15.6-69.2 20-91.5 2.5-12.9 5.9-29.8 7.6-37.5 1.6-7.7 2.9-15 2.9-16.2s-.9-6.8-2.1-12.5c-2.8-13.8-3-29.8-.5-35.3 1.1-2.4 1.9-7 2.1-11.6.4-8.6 1.6-11.6 8-19.5 2.4-3 4.9-7.3 5.6-9.6 3.4-12.9 5.6-15.7 14.6-18.4 5.9-1.8 10.3-4.6 13-8.3 3.6-4.8 15.8-10.3 24.3-10.9 6.4-.4 7.6-.2 13.3 2.6 11.6 5.7 24.5 18.3 33.9 33.2 11 17.2 14 25.8 9.9 28-6.1 3.2-12.8-.6-24.3-13.8-4.8-5.5-11.1-12-14-14.5-7-5.8-15.9-11.7-17.8-11.7-.8 0-4.8-1.4-8.8-3-7.1-3.1-10.5-3.2-8.2-.5.6.8 6.3 4.2 12.6 7.6 16.5 9 19 11.4 25.2 25.1 5.7 12.7 8 20.5 7.4 24.9-.3 2-1.8 3.8-5.2 6.3-2.7 1.9-5.1 4.4-5.5 5.6-1.1 3.5-2.8 1.7-6-6.6-6.9-17.3-10.9-22.9-20.8-29.2-11.7-7.3-21.5-12.3-22.2-11.2-.9 1.5 3.9 5.5 14.6 12.1 5.4 3.3 10.9 7.2 12.5 8.7 3.9 3.9 12.6 22.6 13.2 28.3.5 5.3-1 7.4-7.9 11.4-4.8 2.8-4.9 2.8-4.9 1.6 0-2.5-4.4-12.4-7.9-17.9-3.8-5.8-4.4-6.2-18.1-13.1-14.6-7.4-20-8.9-14.8-4 1.5 1.4 7.8 5.3 13.9 8.5 12.4 6.5 14 8.2 19.5 19.7 4.2 8.9 3.9 11.4-1.8 14.3-1.8.9-4.1 2.3-5 3.2-1.6 1.4-2 1.3-3.9-.4-1.2-1-3-3.5-4-5.6-3.4-6.7-6.8-9.1-15.5-10.9-4.3-.9-9.4-2-11.1-2.4-5.2-1.2-4.1 1.3 1.7 3.8 2.7 1.2 5 2.5 5 2.8s-1.2 1-2.7 1.7c-2.8 1.1-2.8 1.1.7.7 1.9-.2 4.7-.7 6.2-1 5-1.3 7.2.1 10.8 6.6 4 7 6.8 9.6 11.5 10.5 4.5.8 10.6-2.4 13-7 1.7-3.1 2.4-3.6 5.7-3.6 4.6 0 10.3-4.6 12.9-10.4 1.6-3.7 2.1-4 5.8-4.1 8.6-.2 14.7-9 14.5-21-.1-6.6-1.1-10.3-7.1-24.4-.4-.8 3.4 2.8 8.4 7.9l9.1 9.3-2.1 4.1c-2.9 5.6-3.5 15.3-1.2 21.3 2.3 5.8 7.3 11.5 12.4 13.7 2.2 1.1 4.2 2.7 4.5 3.9s.4 2.2.3 2.3c-.1 0-3.5 1.8-7.5 3.9s-8.2 4.9-9.3 6.4c-1.6 2-2.2 2.3-2.9 1.1-.8-1.2-1.4-1.2-4.6.3-4.4 2.1-5.4 1.7-2.2-.9 3.6-2.9 8.4-9.3 11.3-15.2 2.1-4.2 2.4-5.6 1.5-6.8-.7-.7-1.5-1.4-1.9-1.4-.3 0-2.2 3-4.1 6.7-4.2 8.2-11.4 15.5-20.3 20.7-3.7 2.1-6.5 4.1-6.3 4.4.3.2 2.6-.3 5.3-1.2 5.8-2 5.6-1.8-9.2 7.9-16.1 10.6-34.4 28.6-44 43.3-19.1 29.4-24.6 61.8-16.3 97.7 2.5 11 22.4 77.8 24.5 82.2 3.2 6.8 14.7 9.8 34.3 9 62.9-2.8 205.3-48.8 261.4-84.5 12.6-8 20.6-17.2 20.6-23.6 0-1.4-1.3-6.7-2.9-11.8s-4.3-14-6.1-19.8c-9.3-30.8-18.8-58.2-23.4-67.4-18.1-36.1-48.5-58.5-88.3-65.1-11.9-2-43.7-1.7-53.6.5-5.5 1.2-5.6 1.4-3.6 2.8 1.8 1.2 4.2 1.3 17.7.3 62-4.6 106.9 21.5 128.6 74.8 5.2 12.8 26.6 82.2 26.6 86.3 0 8.2-24.6 24.8-59.5 40.3-65.9 29.3-153.5 55.5-205.8 61.6-14.8 1.7-31.1.9-37-2l-4.7-2.3-3.9-12.6c-16.3-52.2-21.6-72.9-23.3-89.5-2.5-26 4.5-52.8 19.9-75.9 9.2-13.8 29.2-32.8 45.4-43.1 5.4-3.4 23.1-12.7 24.3-12.7.3 0 .6.9.6 2 0 6.3 12.7 5.4 40.5-3s38.2-15.5 31.4-21.6c-2.5-2.2-13.5-3.2-19.2-1.6-3.2.9-3.8.8-4.7-.8-.7-1.4-.3-3.2 2-7.5 5.4-10.2 3.8-21.6-4.1-29.8-4.5-4.6-4.6-4.9-4.1-10.1.8-10.1-5.2-16.6-15.4-16.6-5.7 0-7.7 1-6.8 3.3.5 1.3 1.8 1.6 5.9 1.4 4.7-.2 5.7.2 8.3 2.6 3.3 3.1 4.4 6.9 3.2 10.2-.8 2-1.2 2.1-6.7 1.1l-5.8-1-4.7-9.5c-8.9-18.2-19.7-32.3-32-41.7-13.1-10.2-24.4-12.5-37.8-7.9m88.7 68.1c12.6 7.8 12.9 27.6.5 35.5-10.4 6.6-21.5 5.6-29-2.5-6.7-7.3-7.8-15-3.4-23.7 2.5-5 2.9-5.4 5.9-5.1 4 .4 9.1-2.2 10.6-5.5 1-2.3 1.5-2.5 5.9-2.1 2.9.3 6.7 1.7 9.5 3.4m6.1 43.5c-2.9 1.9-12.6 5.1-17 5.6l-4.8.6v-6.8l4.7.3c3.7.2 6.1-.3 10.3-2.5l5.5-2.8 1.3 2.4c1.2 2 1.2 2.5 0 3.2m24-.6c1.5 1.5-6.7 6.7-16.3 10.4-18 7-43.1 12.5-47 10.3-1.6-.8-1.5-1.1.6-3.1 5-4.7 11.8-7.3 19.8-7.5 8.3-.3 18.5-3.7 22.8-7.8 3.4-3.1 17.7-4.8 20.1-2.3M188.4 664.2c-.6 9.7-1.4 14.3-1.4 8.5 0-1.5-.4-2.7-1-2.7-1.6 0-2.2 4.5-1.2 8.4 1 3.4.9 3.7-1.9 5.2-3.7 1.9-8.8 9.6-9.6 14.7-1.1 6.9-2.3 4.9-2.3-3.8 0-10.1 1.9-18.4 6.1-26.7 3-5.9 9.3-13.8 11.1-13.8.5 0 .6 4.1.2 10.2m5 31.6c1.6 1.8 5 4.5 7.5 5.9 2.5 1.5 4.7 2.7 4.9 2.9.2.1-.7 1.9-2 4-2.9 5-3.7 20.9-1.4 29.4.8 3 1.3 5.7 1 5.9-.9.9-12.2-6.8-17.4-11.9-5.7-5.5-13-17.9-13-21.7.1-1.4.3-1.3 1.4.6 1.2 2.2 1.4 2 2.5-4 1.5-7.5 5.2-15.1 8.3-17.4 2.2-1.5 2.4-1.4 3.8.7.8 1.2 2.8 3.7 4.4 5.6m50.6 12.9c.6 2.1 1.6 10.5 2.2 18.8.5 8.2 1.4 15.6 2 16.2 3.1 3.8-19.1 6.7-32.3 4.3-6-1-6.9-1.4-6.4-3 .3-1-.2-4.4-1.1-7.6-3.1-10.9.1-32.6 4.6-30.8 3.4 1.3 16.8 1.4 22.5.1 3.3-.8 6.3-1.5 6.7-1.6.4 0 1.2 1.6 1.8 3.6m204.8 26.9c18.8 8.3 21.3 9.5 20.6 10.5-.3.5-1.6.9-3 .9-3.2 0-53.8 7.1-78.4 11-27.4 4.4-44.6 7-51 7.6-9 .9-14.6-2.6-10.4-6.5 1-1 6.6-4.2 12.4-7.1 10.5-5.3 13.5-6.8 20-10.1 1.9-1 8-3.9 13.5-6.4 9.2-4.3 10-4.5 11.2-2.9 1.7 2.3 1.6 3.4-.4 5.6-1.3 1.4-1.4 2.1-.5 3s1.9.7 4.1-1c2.7-2 3.3-2.1 6.8-.8 5.9 2.1 13.4 2.8 17.8 1.7 11-2.6 15-4.1 16.4-5.9 1.3-1.5 6.4-4.9 7.9-5.2.1 0 6 2.5 13 5.6m23.3 69.4c-.2 30.5-.8 56.3-1.3 57.2-.4 1-1.6 2.2-2.6 2.7-1.6.8-1.7-1.6-1.5-41.2.3-49.5.1-54-3.2-57.3-2.1-2.1-3.4-2.4-9.8-2.4-4.1 0-9.6.7-12.3 1.5s-8.7 1.8-13.4 2.2c-4.7.3-10.9 1.4-13.9 2.5-3 1-8.2 1.8-11.6 1.8-3.5 0-9 .9-12.5 2-3.4 1.1-8.8 2-11.9 2s-8.4.9-11.7 2c-3.4 1-10.2 2.2-15 2.6-6.2.4-10.7 1.4-14.6 3.1-5.1 2.3-6.1 2.4-8.8 1.3-4.2-1.7-5-3.6-4.7-11.4.2-6.8.4-7 4.5-5.5 1.3.5 3.9.9 5.7.9 3.4 0 29.4-3.7 46-6.5 10.4-1.8 34.3-5.3 60-9 9.9-1.4 20.3-2.9 23-3.4 2.8-.5 6.1-.8 7.5-.8l2.5.2zm-9.1-7v7h-5.4c-2.9 0-7.3.7-9.7 1.6s-8.1 2-12.6 2.5c-4.6.5-9.9 1.5-11.9 2.4-1.9.8-6.6 1.7-10.2 2.1-3.7.3-9.6 1.4-13.2 2.4s-9.3 2.1-12.7 2.5c-3.4.3-9.5 1.7-13.4 3-4 1.4-9.4 2.5-12 2.5-2.5 0-6.3.7-8.2 1.5-2 .8-5.7 1.5-8.1 1.5-2.5 0-7.1 1-10.2 2.1-5.6 2.1-5.6 2.1-8.3.2-2.2-1.7-2.6-2.9-2.9-7.7-.2-3.1-.2-5.6 0-5.6s1.8.4 3.5.9c2.6.7 5 .4 11-1.5 4.3-1.3 11.9-2.8 16.8-3.4 5-.5 11-1.6 13.4-2.5 2.4-.8 5.6-1.5 7.1-1.5s4.9-.7 7.6-1.5c2.7-.9 8.4-2 12.6-2.5 4.3-.5 10.7-1.8 14.2-2.9s9.3-2.3 12.8-2.6c3.4-.4 9.5-1.5 13.4-2.6 3.8-1 8.6-1.9 10.5-1.9 1.9-.1 5.9-.7 8.9-1.5 3-.7 5.8-1.4 6.3-1.4.4-.1.7 3 .7 6.9m0 39.9c0 6.6-.5 7.1-7.3 7.1-2.3 0-6.4.7-9.2 1.6-2.7.9-8.1 2-12 2.4-3.8.5-11 1.8-16 3-4.9 1.1-13 2.7-18 3.5-4.9.8-11 2.1-13.4 2.9-2.4.9-6.4 1.6-9 1.6-4.4.1-8.6.9-21.6 4.4-3.2.9-7.7 1.6-9.9 1.6-2.1 0-6.5 1-9.7 2.1l-5.8 2.1-3.5-2.2c-3.3-2-3.6-2.5-3.6-7.1 0-2.7.2-4.9.4-4.9.3 0 1.7.5 3.1 1 2 .8 4.9.5 11.3-1 19.7-4.5 27.2-6 29.9-6 1.5 0 6.9-1.1 11.8-2.5 5-1.4 10.6-2.5 12.6-2.5s7.1-.9 11.5-2c4.3-1.1 12.4-2.7 17.9-3.5s11.6-1.9 13.5-2.5c1.9-.5 5.1-1 7-1 1.9-.1 6.9-.9 11-2 4.1-1 7.8-1.9 8.3-1.9.4-.1.7 2.6.7 5.8"/><path d="M354.9 392.2c-1.8 3.3-1.6 11.7.4 15.5 2.8 5.3 7.3 7.8 14.2 7.8 4.2 0 7-.6 8.9-1.8 3.9-2.6 2.7-3-1.9-.7-2.2 1.1-5.1 2-6.5 2-4.3 0-11.2-4.2-13.2-8-2-3.9-2.4-11-.7-14.2.6-1.1.8-2.2.6-2.5-.3-.2-1.1.6-1.8 1.9m170.6-65.5c-3.6.9-8.6 5.4-10.7 9.8l-2.1 4.4-3.1-2.2c-2.5-1.7-4.5-2.2-9.8-2.2-5.7 0-7 .4-9.3 2.5-3.4 3.1-5.5 7.8-5.5 12.3 0 5.1 4.5 13.1 10.1 17.8 4.9 4.1 22.2 13.9 24.5 13.9 1.4 0 10.1-13.2 14.9-22.8 8.2-16.2 7.8-29.1-1-32.8-3.5-1.4-4.5-1.5-8-.7m7.9 7.5c2.2 3.1 2 9.3-.4 16.4-2.8 8.1-14 26.6-15.8 25.9-4.7-1.8-16.4-9.6-20.4-13.6-5.2-5.2-7.5-11-5.9-15.2 1.3-3.2 5.8-6.7 8.8-6.7 3.3 0 10 3.6 11.3 6 .6 1.1 1.9 2 3 2 1.5 0 2.2-1.1 3.1-4.4.6-2.5 2.7-6.3 4.6-8.5 4.1-4.9 9.1-5.7 11.7-1.9m493 70.7c-3.6 2.2-7 6.6-7.9 10.4-.4 1.5-.8 2.7-1 2.7-.1 0-2-.7-4.1-1.6-5.3-2.2-12.7-1.4-15.9 1.6-3 2.8-4.8 8.8-3.9 12.7 1.2 5.2 5.5 11.3 10.7 15.2 5.9 4.5 21.6 12.4 23.2 11.7 1.5-.5 10.9-16 14.7-24.3 2.8-5.9 3.2-7.9 3.3-15.1v-8.3l-3.7-3.5c-3.1-2.8-4.6-3.4-8-3.4-2.5 0-5.6.8-7.4 1.9m11.6 5.1c5.6 5.6 2.7 17.7-8.7 36.1l-3.5 5.8-6.2-3.1c-17.9-9-25.1-19.4-18.1-26.3 3.8-3.9 7.4-3.3 15.6 2.6 2.6 1.9 4.6.4 5.2-4.1 1.3-9.8 10.4-16.3 15.7-11m-754.3 34.3c-4 6.2-8 9.6-15.2 12.7-6.3 2.8-4.4 3.7 3.1 1.5 7.1-2.1 14.9-9.3 16-14.9.3-2 .4-3.9.1-4.2s-2.1 1.9-4 4.9m193.8-1.9c19.2 6.3 34.2 17.5 44.6 33.4 5.5 8.4 9.9 19.3 19.5 48.4 3.8 11.4 7 20.5 7.2 20.3.4-.4-8.7-30-13.5-43.9-9.1-26.3-21.8-42.3-41.8-52.8-7.4-3.9-18.3-7.8-21.2-7.8-1 .1 1.4 1.1 5.2 2.4M462 463.7c5.3 3.7 15.4 14.1 19.2 19.7 6.3 9.1 11.5 21.3 18.9 43.6 7.6 23 8.9 25.2 2.9 4.7-6.9-23.2-13.2-38.2-21-49.8-4.4-6.4-14.7-16.2-19.3-18.4-3.2-1.5-3.2-1.5-.7.2m-143 12c-10.2 7.8-21.8 19-27 26.3-3.9 5.2-4.7 5.9-7 5.3-1.4-.3-2.9-1-3.4-1.4-.6-.5-1.5-.9-2-.9-1.9.1 2.7 3 4.6 3 2.6 0 2.3 1.5-1.6 7.9-7.4 12.2-12.9 30.1-14.2 46.1-.7 9.9.7 22.9 4.2 38.5 2.6 11.9 8.5 32.8 9 32.2.2-.1-1.9-9-4.6-19.7-6.3-25.6-7.4-33.3-6.7-49.4.4-9.6 1.2-15.5 3.1-22.1 2.7-9.7 10.5-26.5 14-30 1.1-1.3 2.2-2.8 2.4-3.5 1-4.4 16.3-20.5 30-31.4 6.3-5.1 7.9-6.7 7-6.6-.2 0-3.7 2.6-7.8 5.7"/><path d="M293.8 526.4c-2.1 13.4-.3 45.2 3.7 66.3 2.1 11.1 5.7 26.4 6.1 26 .2-.1-.6-5.2-1.6-11.2-4.9-26.7-6.2-39.3-6.9-62.5-.4-16.2-.8-22-1.3-18.6m244.8 39.7c-8.9.9-19 2.9-18.3 3.5.2.2 6.6-.3 14.3-1.2 13.6-1.6 36.3-1.6 40.9.1 1.6.5 1.7.4.4-.4-2-1.3-16.7-3.1-23.9-3-3 .1-9.1.5-13.4 1m-31.1 4.6c-6.2.8-34.4 7.4-46 10.7-34.6 9.8-72.1 22.2-96 31.8-16.4 6.6-47.7 21.4-52.6 24.8-5.9 4.2-2 3.1 10.2-3.1 47.8-23.9 117.1-48 173.2-60 8.6-1.9 15.7-3.7 15.7-4.1 0-.5-.3-.7-.7-.7-.5.1-2.1.4-3.8.6"/><path d="M541 574.1c-53.1 5.1-156.1 36.3-211 63.9-20.4 10.2-35.7 20.6-38.5 26.1-2 3.8-.6 3.7 3.1-.2 19.7-20.9 95.5-53.3 171.9-73.3 38.6-10.1 66.5-14.9 88.2-15 7.8-.1 13.4-.4 12.4-.7-3.4-1.3-16.8-1.7-26.1-.8m34 .8c1.7 3.3 1.1 5-3.2 9.4-18.5 18.3-96.7 52-165.2 71.2-7.6 2.2-13.4 4.1-12.9 4.2.6.2 9.5-2.1 19.9-5.1 76.9-22.3 156.6-57.9 163.9-73.2 1.5-3.2 1.5-3.7.1-6-2-2.9-4.2-3.3-2.6-.5M519.5 633c-.3.5-.9 4.2-1.2 8.1-.5 6-.9 7.2-2.7 7.9-1.2.4-5.4 2.8-9.4 5.3-8.7 5.4-20.2 10.4-37.1 16.3-13.7 4.7-16.5 6.5-14.1 8.9 2.8 2.7 42.2-11.8 56.3-20.8 3.2-2.1 5.9-3.7 6.1-3.7s.1 6.2-.1 13.7l-.3 13.7-2.9 1.2c-1.5.6-5 2.8-7.7 4.7-8 5.8-20.8 11.4-39.2 17.4-15.7 5-17.3 5.7-17 7.7.4 3.1 4.7 2.5 21.8-3 16.8-5.4 27.9-10.3 37.9-16.8 4-2.5 7.4-4.6 7.6-4.6.3 0 .5 3.5.5 7.7 0 8.3 2.7 41.3 3.4 42.1.3.2 1.4.1 2.6-.3 2.1-.7 2.2-1.1 1.6-6.9-1.9-18.9-2.6-36.6-2.6-66.4 0-28.2-.2-33.2-1.4-33.2-.8 0-1.8.4-2.1 1"/><path d="M362.5 666.1c-31.7 6.9-63.5 9.4-71.8 5.7-2-.9-4.1-2.7-4.6-4-.8-2-1-2.1-1.6-.6-3.1 7.8 13.7 10.9 40.5 7.4 20.3-2.7 61.1-11.4 53-11.4-1.4 0-8.3 1.3-15.5 2.9m7 44.9c-2.2.5-11.9 3.2-21.5 6-14.5 4.3-19.3 5.2-28 5.7-14 .7-18 2.8-10.3 5.4 5.1 1.7 17.6.6 29.8-2.6 14.4-3.7 34.2-10.5 35.6-12.1 1-1.3.5-3.5-.9-3.3-.4.1-2.5.5-4.7.9m138 9.6c-6.9 4.2-11.7 6.4-23.2 10.6-4.6 1.6-8.6 3.4-8.9 3.9-1.8 3 20.5-2 31.3-7 8-3.8 10.7-6.5 9.3-9.1-.6-1.1-1.4-2-1.8-2s-3.4 1.6-6.7 3.6m37.2-.2c-6.6 2.4-10.7 7.8-10.7 14.3-.1 3.2-2.9 5.7-7.8 6.8-4.2.9-10 6.4-10.8 10.3-.5 2.5-1.2 3.1-4.5 3.6-6.8 1.1-14.2 10.1-12.3 15.1.3.7-.5 1.5-2 1.9-8.7 2.2-13.8 14.4-9.5 22.8.7 1.2.1 2.4-2.1 4.6-4.5 4.5-4.5 6.5-.2 19.7 2.2 6.6 6.1 21 8.7 32 5.5 22.7 6 23.7 16 27.4 9.3 3.6 19.7 5 35.5 5 15.1 0 25.6-1.3 35.2-4.6l5.7-1.9 1.6 4.3c1.8 4.6 5.9 8.3 11.4 10.2 5.2 1.7 15.4 1.4 20.9-.7 2.9-1.1 5.6-1.6 6.8-1.1 5.3 2.1 19 .2 23.1-3.3.8-.6 5.5-1.1 11.1-1.2 7-.1 10.5-.6 12.7-1.8 2.4-1.3 4.8-1.5 11.5-1.1 9.8.5 17.9-1.7 24-6.6 1.9-1.5 5.3-3.1 7.5-3.5 4.5-.9 10.6-3.8 12.3-5.9.8-.9 3.2-1.5 6.3-1.6 6.4-.1 13.9-4 17.4-9.1 7.8-11.3 4.3-29.4-7.6-37.9-2.7-2-5-4.9-6.9-8.8-4.1-8.8-13.9-16.8-22.6-18.7-1.7-.4-4.2-1.9-5.5-3.3-9.1-9.7-26.6-14.2-42.9-10.9-13.7 2.8-21.4 7.6-31.5 19.5-.5.6-3.8 2.9-7.2 5.1-7.4 4.7-13.7 12.3-15.8 19.3-1.6 5.3-4.9 9.7-7.2 9.7-1.7 0-1.5-.6 3.4-13.9 3.1-8.2 3.3-9.6 2.2-12.2-.6-1.7-1.9-3.5-2.8-4.2-1.3-.9-1.6-2.9-1.6-8.9 0-7.3-.2-7.9-3.1-11-1.9-1.9-3.4-4.9-3.8-7.1-.8-4.1-7.3-11.7-10.1-11.7-.9 0-2.5-2.3-3.9-5.3-2.4-5.6-7.1-10.3-11.2-11.3-1.4-.4-3.1-1.9-3.9-3.5-.9-1.6-2.4-3.3-3.4-3.9-1.2-.6-2.2-2.6-2.6-5-1.5-9.1-11.1-14.7-19.8-11.6m23.8 27.1c.8 4.7-.3 7.9-4 12.3-3.6 4.3-7.3 6.1-15.9 7.8l-7.1 1.3 7.3-.3c3.9-.2 7.2-.2 7.2-.1 0 1-8.2 4.8-15.2 7.1-6.7 2.2-10.3 2.7-18.8 2.8-11.6.1-16-1.4-18.9-6.5-3.4-6.1 7-15.7 14.4-13.1 3.5 1.3 12.3 1.6 11.1.5-.4-.5-2.6-1.2-4.9-1.8-3.3-.8-4.3-1.5-4.5-3.4-.5-3.2 3.8-7.5 9.1-9.1 2.3-.6 4.8-1.7 5.4-2.2.9-.7 2.3-.2 4.7 2 3.8 3.3 9.7 4.8 14.8 3.7l3.3-.7-1.9 2.1c-2.3 2.5-13.1 8.1-15.8 8.1-1 0-1.8.5-1.8 1.1 0 2.8 15.5-3.8 19.9-8.5 2.5-2.7 4.3-5.4 6.1-9.6l1.1-2.5 1.9 2.5c1.1 1.4 2.2 4.3 2.5 6.5m9.6 4.2c3.8 4 4.9 6.6 4.9 11.3 0 10.7-9.7 18.2-29.6 22.9-5 1.1-11.6 2.2-14.5 2.2l-5.4.1 4.7.9c5.9 1.2 21.9-1 30-4.1 9.4-3.5 17.8-12.2 17.8-18.5 0-3.3 1.2-3.2 5.4.5 7 6.2 6.8 13.5-.5 21.5-5 5.4-14.5 9.8-29.3 13.5-37.5 9.5-67.3 4.8-71.6-11.2-2.6-9.4 8.6-19 15.1-12.9 1.1 1 4.9 2.5 8.4 3.4 5.8 1.4 7.4 1.5 15.4.2 15.3-2.5 25-6.9 34.8-15.8 6.1-5.6 8.3-9.7 8.3-15.2 0-3.1.2-3.4 1.8-2.6.9.5 2.9 2.2 4.3 3.8m119.1 32.1c25.8 12.5 33.4 54.4 14.9 82.1-2.4 3.6-5.3 6.3-8.7 8.3-5.8 3.2-15.7 5.4-19.1 4.1l-2.2-.8 2.9-4.6c6.3-9.7 8.8-29.1 5.4-42.8-5.6-22.3-23.7-37.5-42.7-35.8-5.8.5-5.8.5-4-1.5 3.3-3.7 10.5-8.1 17.2-10.5 5.8-2.1 8-2.3 18.1-2 10.6.2 12 .5 18.2 3.5m-95.6.4c4.4 8.6-2.8 20.4-14.6 23.8-3.1.9-4.3-.3-1.4-1.4.9-.4 1.5-.9 1.2-1.1-.3-.3-3.4.8-7 2.5-9.1 4.3-19.6 6.3-28.6 5.6-8.6-.7-16.2-2.5-16.2-3.8 0-.5.5-.6 1-.3 2.6 1.6 32.8-5.1 43.7-9.6 8.4-3.6 16.6-10.4 18.5-15.5.6-1.8 1.3-3.4 1.5-3.4.1 0 1 1.4 1.9 3.2m125.5 17.5c8.4 7.6 13.1 22.2 11.1 34.9-2 13.8-8 24.7-15.7 29.1-5.9 3.3-6.7 2.9-4-2 5.1-9.3 7-18.1 7-33.2 0-12.7-.3-14.7-2.8-22.1-1.5-4.5-3.4-9-4.2-10s-1.5-2.2-1.5-2.7c0-1.3 5.9 2.2 10.1 6m-62.6.1c21.5 10.8 30.2 43.2 18.1 67-2.9 5.8-5.8 8.5-11.6 11.1-4.3 2-15 3-15 1.4 0-.4 1-2.7 2.3-5.2 1.9-3.9 2.2-6.2 2.2-15.1 0-9.9-.2-11-3.3-17.2-3.7-7.6-11.4-15.3-18.9-18.9-5.5-2.7-16.8-3.8-20.2-2-2.7 1.5-2.7.3 0-5.1 3.8-7.5 12.3-14.3 22.8-18.4 6-2.3 16.5-1.3 23.6 2.4m-174.1 1.3c-.9 1-1.4 2.4-1.1 3.2.7 1.8 12.5 7.7 14.2 7.1.7-.3 2.9.2 5 1 2.1.9 5.5 1.6 7.7 1.6 2.1 0 5.3.7 7 1.6 2.5 1.3 3.5 1.3 6 .3 2.1-.9 3.9-.9 6.6-.1 3.4.9 20.3.9 33.2-.2 13.6-1 30.7-6.1 33.9-10 1.2-1.4 1.2-2.2.3-3.6-1.8-3 .7-3.7 2.9-.9 2.5 3.3 2.4 4.8-.6 5.9-1.4.5-2.8 1.7-3.1 2.5-.4.8-1.6 1.5-2.9 1.5-1.2 0-2.8.7-3.6 1.6-.8 1-2.2 1.4-3.8 1.1-2.6-.5-7.1 1-7.1 2.5 0 .4-1.8.5-4 .2-2.9-.5-4.7-.2-6.5 1-2.1 1.4-3.1 1.5-6.5.5s-4.3-.9-7.2.8-3.7 1.8-6.3.7c-4.1-1.8-7.6-1.7-10.3.1-1.9 1.4-2.4 1.4-5.1 0-3.6-1.8-7.4-1.9-10-.3-1.6.9-2.7.8-6-.6-2.6-1.2-5.1-1.7-7.2-1.2-2.3.4-3.9 0-6.1-1.5-2.2-1.6-3.9-2-6.8-1.6-3 .4-4.3.1-5.6-1.4-.9-1-2.5-1.9-3.4-1.9s-2.5-.9-3.5-2-2.7-2-3.8-2c-1.6 0-1.8-.5-1.2-2.8.7-2.9 4.4-6.4 5.8-5.5.5.3.1 1.3-.9 2.4m255.3 21.1c2.7 3 5.8 9.4 6.6 13.6.9 4.7-1.1 12.8-4 16.3-2.8 3.3-9.1 6.9-12.2 6.9-1.9 0-1.9-.2.5-5 4-7.9 6.7-20.4 6.1-27.7-.2-3.5-.1-6.3.2-6.3.4 0 1.7 1 2.8 2.2M634 827.6c5.6 1.8 12.6 7.2 16.2 12.6 11.4 16.9 7.8 38.9-7.4 45.2-3.6 1.5-12.9 2.2-14 1.1-.3-.3.3-2.2 1.4-4.3 3.9-7.5.1-21.2-7.9-28.2-4.5-4-13.3-6.5-17.5-5.1-4 1.4-3.8 1.4-3.8-.9 0-6.1 11.5-20.2 17.7-21.5 1.5-.4 3.3-.8 3.8-1 1.4-.5 6.2.4 11.5 2.1m-20.2 26c8.5 3.5 13.6 11.5 13.7 21.3 0 6-.2 6.5-3.4 9.1-6.3 5.3-20.5 6.4-27.4 2.1-8.3-5.1-8.7-15.2-1-26.3 5-7.3 10.8-9.3 18.1-6.2"/><path d="M683.7 811c12.8 19 14.9 41 5.8 59-3.3 6.4-1.7 6.6 1.8.2 5.5-10.1 7.2-25.6 4.1-38.1-2-8.2-7.5-18.9-11.6-22.7l-3.1-2.9zM626 853.3c0 .4 1.1 2.2 2.4 4.2 5.2 7.6 6.6 16 4.1 25.5-.6 2.4-.6 2.4.9.6 3.7-4.5 2.8-16.2-1.9-24.2-2.2-3.8-5.5-7.4-5.5-6.1"/></svg>